<svg width="1024" height="1024" viewBox="0 0 1024 1024" fill="none" xmlns="http://www.w3.org/2000/svg">
<g clip-path="url(#clip0_5939_986)">
<path d="M0 0H1024V1024H0V0ZM604.365 54.2715C605.362 61.1935 611.989 70.121 617.531 74.2058C617.714 74.3412 617.902 74.4706 618.086 74.6059C618.269 74.7412 618.449 74.8814 618.632 75.0175C618.742 75.0991 618.854 75.1785 618.964 75.259C616.877 75.7499 614.673 76.3491 612.521 76.359C609.557 76.3725 601.926 74.4693 599.903 76.3368C600.205 78.75 603.29 81.2766 605.179 82.6831C608.324 85.0237 611.857 86.2662 615.599 87.2558C607.546 99.3999 605.668 112.233 606.846 126.61C602.147 127.448 598.154 128.487 595.146 132.567C591.914 136.952 591.614 142.882 592.573 148.069C593.189 151.401 594.394 154.461 595.802 157.529C583.807 156.969 571.827 155.61 559.871 154.514C538.033 152.562 516.204 150.501 494.387 148.329L325.493 132.656L263.346 127.061C254.017 126.198 241.368 123.958 232.235 124.633C227.695 124.968 223.222 128.455 220.012 131.5C218.813 132.636 217.811 133.893 216.849 135.23C212.511 130.877 208.071 126.671 201.467 126.611C195.755 126.558 141.67 140.874 135.162 143.669C131.332 145.313 127.886 147.734 125.041 150.779C122.041 153.928 118.86 158.528 117.957 162.824C116.947 167.626 117.298 173.009 117.252 177.919C117.208 189.429 117.298 200.94 117.522 212.448C117.643 244.228 118.052 276.007 118.749 307.779L121.448 429.758C121.592 438.919 121.27 448.092 121.445 457.246L126.666 701.901L129.827 829.436C130.387 849.886 131.753 870.418 131.436 890.882L67.4657 890.473C59.2572 890.462 50.3928 889.724 42.2431 890.387C41.4205 890.454 40.8133 890.757 40.0943 891.134C39.3705 892.308 39.4253 892.554 39.4466 893.953C40.2825 895.08 40.3282 895.163 41.7845 895.413C45.037 895.971 48.9908 895.706 52.3136 895.788C62.9415 896.049 73.5559 895.974 84.1851 896.007L174.25 896.593L442.235 897.194C450.578 897.133 458.909 896.648 467.25 896.529C510.815 895.575 554.392 895.213 597.967 895.443C599.346 901.074 599.272 906.763 600.443 912.367C588.461 916.398 577.207 922.53 565.817 927.955C555.104 933.058 543.291 937.633 533.569 944.462C531.429 945.965 529.178 947.725 528.041 950.153C527.193 951.968 527.189 953.921 527.885 955.786C528.739 958.071 530.659 959.658 532.858 960.6C538.872 963.176 547.289 962.141 553.698 961.655C565.343 960.771 577.32 959.552 588.734 957.05C610.821 952.207 632 944.141 653.881 938.584C666.534 935.143 680.858 932.565 692.567 926.711C692.567 926.502 692.57 926.294 692.567 926.086C692.449 918.833 686.559 896.982 688.647 891.988C692.523 889.657 725.435 890.059 731.312 890.706C732.631 891.587 732.925 893.168 733.2 894.642C733.433 895.887 733.3 897.201 734.432 898.023C734.793 898.284 735.685 898.667 736.111 898.86C736.521 902.212 732.136 915.772 731.959 921.995C731.934 922.863 731.879 923.732 731.843 924.6C756.678 932.295 883.233 950.663 902.443 940.317C905.275 938.792 907.517 936.366 908.408 933.233C909.597 929.055 909.335 924.118 907.085 920.34C905.509 917.694 903.081 915.626 900.388 914.177C892.848 910.12 882.665 908.401 874.401 906.205C866.512 904.108 858.68 901.772 850.802 899.677C846.153 898.441 840.311 897.564 836.156 895.116C834.488 894.133 833.205 892.609 833.679 890.548C833.724 890.353 833.798 890.166 833.858 889.975C843.078 887.943 865.176 888.874 875.411 888.852C903.025 888.795 930.739 888.854 958.336 887.795C965.047 887.537 972.727 888.002 979.257 887.334C980.652 887.191 981.689 886.935 982.867 886.18L983.271 885.058C982.77 884.006 982.375 883.079 981.231 882.599C978.167 881.312 915.79 883.442 906.75 883.57L833.109 884.354C832.039 861.955 829.932 839.684 827.978 817.352C824.036 772.86 818.904 728.482 812.587 684.265C831.261 684.141 849.91 683.804 868.586 683.966C880.651 684.071 905.594 685.539 916.247 683.159C922.021 681.869 927.067 678.712 931.184 674.526C934.04 671.624 936.53 668.486 937.958 664.628C941.801 654.241 944.303 642.886 947.199 632.183L965.534 561.795L977.487 517.366C979.273 510.669 982.693 501.958 982.712 495.062C982.721 491.485 980.466 489.015 977.993 486.7C977.859 486.574 977.718 486.455 977.58 486.333L976.929 486.154C965.944 483.224 954.602 487.276 944.755 492.065C940.319 494.222 936.306 496.649 931.328 497.308C924.357 498.23 916.718 497.712 909.684 497.766C893.265 497.891 876.82 497.612 860.443 498.211C856.735 498.346 853.478 497.085 849.69 497.794C849.114 497.901 848.531 497.971 847.951 498.058L847.547 497.503C850.444 490.522 857.567 482.733 862.068 476.487C877.041 455.71 908.463 413.655 913.627 390.036C915.317 382.304 914.768 374.743 911.76 367.405C909.238 361.252 905.369 356.081 900.873 351.237C889.6 339.091 876.169 328.473 863.73 317.542C847.648 303.409 831.706 288.96 815.217 275.306C805.449 267.219 795.309 259.535 785.282 251.772C775.841 244.463 763.684 233.919 752.634 229.463C740.224 224.459 726.685 225.976 713.92 228.359C711.328 225.37 707.418 219.112 707.869 215.088C708.387 210.459 713.696 205.735 715.824 201.593C721.868 189.83 722.793 172.634 722.408 159.583C729.899 158.754 736.694 158.288 741.72 151.834C745.284 147.257 746.853 140.809 746.101 135.085C745.436 130.026 742.863 124.939 738.668 121.922C734.547 118.958 730.359 118.904 725.56 119.703C727.163 112.404 729.092 104.181 724.611 97.4769C720.899 91.9231 712.682 86.0679 706.878 82.7351C702.607 80.2828 697.807 78.6695 693.287 76.7262C683.114 72.3517 672.543 66.7733 661.543 64.9157C652.015 63.3068 642.324 65.7819 632.583 63.9666C627.393 62.9993 622.305 61.186 617.447 59.1521C613.33 57.4288 608.796 54.7885 604.365 54.2715Z" fill="#FEFEFE"/>
<path d="M618.965 75.2609C618.855 75.1804 618.743 75.101 618.633 75.0194C618.45 74.8833 618.27 74.7431 618.087 74.6078C617.903 74.4725 617.715 74.3431 617.532 74.2077C611.99 70.1229 605.363 61.1954 604.366 54.2734C608.797 54.7904 613.331 57.4307 617.448 59.154C622.306 61.1879 627.394 63.0012 632.584 63.9685C642.325 65.7838 652.016 63.3087 661.544 64.9176C672.544 66.7752 683.115 72.3536 693.288 76.7281C697.808 78.6714 702.608 80.2847 706.879 82.737C712.683 86.0698 720.9 91.925 724.612 97.4788C729.093 104.183 727.164 112.406 725.561 119.705C730.36 118.906 734.548 118.96 738.669 121.924C742.864 124.941 745.437 130.028 746.102 135.087C746.854 140.811 745.285 147.259 741.721 151.836C736.695 158.29 729.9 158.756 722.409 159.585C722.794 172.636 721.869 189.832 715.825 201.595C713.697 205.737 708.388 210.461 707.87 215.09C707.419 219.114 711.329 225.372 713.921 228.361C726.686 225.978 740.225 224.461 752.635 229.465C763.685 233.921 775.842 244.465 785.283 251.774C795.31 259.537 805.45 267.221 815.218 275.308C831.707 288.962 847.649 303.411 863.731 317.544C876.17 328.475 889.601 339.093 900.874 351.239C905.37 356.083 909.239 361.254 911.761 367.407C914.769 374.745 915.318 382.306 913.628 390.038C908.464 413.657 877.042 455.712 862.069 476.489C857.568 482.735 850.445 490.524 847.548 497.505L847.952 498.06C848.532 497.973 849.115 497.903 849.691 497.796C853.479 497.087 856.736 498.348 860.444 498.213C876.821 497.614 893.266 497.893 909.685 497.768C916.719 497.714 924.358 498.232 931.329 497.31C936.307 496.651 940.32 494.224 944.756 492.067C954.603 487.278 965.945 483.226 976.93 486.156L977.581 486.335C977.719 486.457 977.86 486.576 977.994 486.702C980.467 489.017 982.722 491.487 982.713 495.064C982.694 501.96 979.274 510.671 977.488 517.368L965.535 561.797L947.2 632.185C944.304 642.888 941.802 654.243 937.959 664.63C936.531 668.488 934.041 671.626 931.185 674.528C927.068 678.714 922.022 681.871 916.248 683.161C905.595 685.541 880.652 684.073 868.587 683.968C849.911 683.806 831.262 684.143 812.588 684.267C818.905 728.484 824.037 772.862 827.979 817.354C829.933 839.686 832.04 861.957 833.11 884.356L906.751 883.572C915.791 883.444 978.168 881.314 981.232 882.601C982.376 883.081 982.771 884.008 983.272 885.06L982.868 886.182C981.69 886.937 980.653 887.193 979.258 887.336C972.728 888.004 965.048 887.539 958.337 887.797C930.74 888.856 903.026 888.797 875.412 888.854C865.177 888.876 843.079 887.945 833.859 889.977C833.799 890.168 833.725 890.355 833.68 890.55C833.206 892.611 834.489 894.135 836.157 895.118C840.312 897.566 846.154 898.443 850.803 899.679C858.681 901.774 866.513 904.11 874.402 906.207C882.666 908.403 892.849 910.122 900.389 914.179C903.082 915.628 905.51 917.696 907.086 920.342C909.336 924.12 909.598 929.057 908.409 933.235C907.518 936.368 905.276 938.794 902.444 940.319C883.234 950.665 756.679 932.297 731.844 924.602C731.88 923.734 731.935 922.865 731.96 921.997C732.137 915.774 736.522 902.214 736.112 898.862C735.686 898.669 734.794 898.286 734.433 898.025C733.301 897.203 733.434 895.889 733.201 894.644C732.926 893.17 732.632 891.589 731.313 890.708C725.436 890.061 692.524 889.659 688.648 891.99C686.56 896.984 692.45 918.835 692.568 926.088C692.571 926.296 692.568 926.504 692.568 926.713C680.859 932.567 666.535 935.145 653.882 938.586C632.001 944.143 610.822 952.209 588.735 957.052C577.321 959.554 565.344 960.773 553.699 961.657C547.29 962.143 538.873 963.178 532.859 960.602C530.66 959.66 528.74 958.073 527.886 955.788C527.19 953.923 527.194 951.97 528.042 950.155C529.179 947.727 531.43 945.967 533.57 944.464C543.292 937.635 555.105 933.06 565.818 927.957C577.208 922.532 588.462 916.4 600.444 912.369C599.273 906.765 599.347 901.076 597.968 895.445C554.393 895.215 510.816 895.577 467.251 896.531C458.91 896.65 450.579 897.135 442.236 897.196L174.251 896.595L84.1863 896.009C73.5571 895.976 62.9427 896.051 52.3148 895.79C48.992 895.708 45.0382 895.973 41.7857 895.415C40.3294 895.165 40.2837 895.082 39.4478 893.955C39.4265 892.556 39.3717 892.31 40.0955 891.136C40.8145 890.759 41.4217 890.456 42.2443 890.389C50.394 889.726 59.2584 890.464 67.4669 890.475L131.437 890.884C131.754 870.42 130.388 849.888 129.828 829.438L126.667 701.903L121.446 457.248C121.271 448.094 121.593 438.921 121.449 429.76L118.75 307.781C118.053 276.009 117.644 244.23 117.523 212.45C117.299 200.942 117.209 189.431 117.253 177.921C117.299 173.011 116.948 167.628 117.958 162.826C118.861 158.53 122.042 153.93 125.042 150.781C127.887 147.736 131.333 145.315 135.163 143.671C141.671 140.876 195.756 126.56 201.468 126.613C208.072 126.673 212.512 130.879 216.85 135.232C217.812 133.895 218.814 132.638 220.013 131.502C223.223 128.457 227.696 124.97 232.236 124.635C241.369 123.96 254.018 126.2 263.347 127.063L325.494 132.658L494.388 148.331C516.205 150.503 538.034 152.564 559.872 154.516C571.828 155.612 583.808 156.971 595.803 157.531C594.395 154.463 593.19 151.403 592.574 148.071C591.615 142.884 591.915 136.954 595.147 132.569C598.155 128.489 602.148 127.45 606.847 126.612C605.669 112.235 607.547 99.4018 615.6 87.2577C611.858 86.2681 608.325 85.0256 605.18 82.685C603.291 81.2785 600.206 78.7519 599.904 76.3387C601.927 74.4712 609.558 76.3744 612.522 76.3609C614.674 76.351 616.878 75.7518 618.965 75.2609ZM698.981 92.0323C681.582 102.001 661.161 103.116 642.08 97.8224C639.931 97.2262 634.788 94.9097 632.932 95.5092C629.935 98.8507 628.559 106.831 628.72 111.274C628.739 111.818 628.783 112.024 628.858 112.599C629.697 113.306 629.686 113.163 630.709 113.244C639.814 112.843 650.263 112.234 659.243 113.846C661.583 114.266 663.509 116.641 665.729 116.816C670.706 117.209 673.957 112.596 678.558 111.654C685.746 110.181 694.766 110.639 702.159 110.41C702.243 106.621 701.458 94.6363 699.062 92.0993C699.038 92.0737 699.008 92.0546 698.981 92.0323ZM702.197 117.794C694.248 118.467 686.377 118.722 678.4 118.734C678.717 124.048 678.411 136.372 682.414 140.106C683.393 140.283 684.136 140.286 685.123 140.169C692.127 140.37 699.112 140.623 706.089 141.306C708.046 139.117 708.243 123.094 707.953 119.526C707.902 118.905 707.751 118.375 707.581 117.78C705.831 117.284 703.983 117.62 702.197 117.794ZM629.34 119.985C629.506 127.644 630.685 135.316 630.64 142.938C634.971 142.904 652.62 143.055 655.22 141.393C656.282 134.718 657.075 127.909 657.636 121.173C648.281 119.707 638.779 120.04 629.34 119.985ZM729.312 125.246C730.792 129.012 732.023 132.584 732.753 136.577C731.366 140.684 730.163 145.692 725.996 147.798C724.661 147.681 724.111 147.519 723.26 146.417C722.632 145.604 722.126 144.642 721.611 143.753C721.217 146.751 721.601 150.581 722.372 153.479C727.364 153.591 730.655 153.541 734.491 149.849C737.85 146.617 739.796 141.712 739.674 137.064C739.58 133.513 738.298 130.256 735.627 127.863C733.662 126.103 731.881 125.606 729.312 125.246ZM665.085 126.543C664.274 132.27 663.672 138.025 662.846 143.749C662.37 147.047 661.45 150.537 661.307 153.851C661.257 155.009 661.432 156.445 662.078 157.434C662.798 158.538 664.002 159.054 665.269 159.172C668.912 159.51 673.47 157.38 676.383 159.978C676.828 161.495 677.063 162.855 676.075 164.242C674.748 166.106 672.133 166.61 670.002 166.682C665.188 166.845 659.088 165.362 655.641 161.786C653.846 159.924 653.384 157.742 653.473 155.215C653.539 153.347 653.838 151.476 654.115 149.629C647.547 150.076 631.321 152.421 626.329 148.304C625.826 147.888 625.392 147.42 624.946 146.945L622.665 146.453C621.66 147.26 621.637 147.901 621.518 149.134C620.33 161.366 623.613 185.375 628.272 196.303C630.142 200.69 632.918 204.722 636.093 208.262C637.895 210.27 639.877 212.276 641.942 214.014C653.988 221.305 665.586 224.019 679.507 220.625C690.579 217.969 700.091 210.914 705.845 201.088C714.666 186.197 715.857 164.809 713.498 147.965C706.069 148.611 683.663 148.841 677.81 146.255C673.769 142.167 673.541 131.922 672.955 126.332C670.333 126.459 667.709 126.529 665.085 126.543ZM232.527 129.504C227.971 130.905 224.282 133.114 221.855 137.418C220.97 138.987 220.389 140.643 220.303 142.445C220.036 148.049 220.372 153.837 220.42 159.455C220.551 175.084 221.074 190.687 221.298 206.308C221.342 216.237 221.469 226.165 221.679 236.091C221.771 242.098 221.351 249.095 222.677 254.926C230.392 257.547 243.721 257.719 252.271 258.569C265.034 259.836 277.908 261.459 290.717 262.068C302.022 262.605 313.367 262.528 324.683 262.611C350.647 262.953 376.615 262.544 402.555 261.384C415.291 260.865 428.024 259.928 440.758 259.493C438.043 254.944 436.694 249.461 437.978 244.209C438.664 241.406 439.693 239.749 441.879 237.881C441.525 236.214 440.755 234.643 440.089 233.081C439.174 228.681 438.273 224.237 441.03 220.262C446.093 212.961 466.44 210.841 475.182 209.252C472.491 194.519 470.143 171.591 479.396 158.774C481.006 156.544 482.938 154.824 485.139 153.203C472.533 150.659 459.374 150.081 446.579 148.903L389.601 143.502C359.075 140.516 328.529 137.727 297.966 135.134C276.219 133.107 254.339 130.582 232.527 129.504ZM605.97 130.799C602.305 133.138 600.047 135.19 599.061 139.611C598.064 144.082 599.231 149.634 601.707 153.46C603.305 155.928 605.888 158.06 608.84 158.587C610.551 158.893 612.21 158.554 613.894 158.237C614.911 157.349 615.04 157.27 615.382 155.979C614.792 154.745 614.721 154.433 613.364 153.911C610.653 152.868 609.283 152.809 607.066 150.668C606.311 146.957 604.612 141.717 605.96 138.097C607.457 136.673 609.093 135.568 609.425 133.426C608.796 132.032 607.575 131.504 606.24 130.899C606.152 130.86 606.06 130.833 605.97 130.799ZM197.829 133.669C188.972 136.128 180.138 138.723 171.234 141C161.322 143.534 145.355 146.107 136.776 150.921C133.279 152.884 129.983 156.408 127.953 159.849C126.492 162.325 125.88 164.744 125.698 167.596C124.929 179.643 126.402 192.91 126.497 205.124L126.811 249.256C126.883 257.173 126.398 265.404 127.661 273.244C132.054 272.204 136.467 271.254 140.899 270.392C165.636 266.013 190.179 260.572 214.846 255.812C213.616 226.385 214.446 196.755 213.856 167.295C213.699 159.471 214.624 148.564 213.292 141.11C213.021 139.591 211.972 138.142 210.864 137.1C207.968 134.378 203.197 133.329 199.333 133.537C198.831 133.564 198.33 133.618 197.829 133.669ZM492.092 153.977C497.305 157.476 499.322 162.304 500.49 168.301C502.584 179.046 503.144 190.116 505.451 200.809C506.881 207.44 509.419 213.968 511.912 220.268L560.649 223.853C568.505 224.442 576.837 224.395 584.568 225.751C585.817 225.97 586.696 226.472 587.716 227.219L587.61 228.189L587.986 227.476C588.473 228.169 588.585 228.134 588.602 229.03C587.297 230.433 585.241 230.566 583.418 230.623C577.928 230.793 571.974 229.719 566.48 229.308L529.523 226.665C524.563 226.292 518.794 225.224 513.886 225.714C513.465 227.819 521.418 259.12 522.696 262.908C531.468 263.511 540.433 263.038 549.148 263.849C555.751 261.548 566.865 250.192 574.634 245.68C586.785 238.623 600.432 233.968 613.369 228.635C619.68 226.033 624.241 229.073 627.591 221.175C628.776 218.382 629.377 215.147 630.112 212.197C619.83 197.844 615.933 183.503 614.916 165.945C609.198 166.136 605.817 165.642 600.916 162.432C591.528 162.816 581.887 161.483 572.538 160.658L522.041 156.173C512.236 155.302 501.925 153.929 492.092 153.977ZM485.463 160.855C477.806 171.744 477.732 191.163 479.913 203.754C480.226 205.477 480.58 207.192 480.975 208.898C484.809 209.875 487.223 211.331 489.334 214.77C492.826 220.456 492.44 226.911 491.324 233.174C493.847 237.201 494.668 240.509 495.649 245.044C496.267 247.896 495.653 250.577 495.873 253.428C496.497 261.508 499.743 261.298 497.06 271.088C499.355 275.27 501.333 279.952 499.818 284.775C498.89 287.73 496.683 289.921 493.933 291.257C488.402 293.942 469.296 297.824 462.772 298.654C464.759 318.254 480.352 410.625 491.064 419.37C493.316 421.208 496.178 421.846 498.968 422.398C508.806 422.925 515.804 419.805 523.005 413.269C536.806 400.744 547.905 377.059 548.604 358.427C549.688 329.527 530.089 311.603 521.745 286.068C516.686 270.587 514.076 254.556 509.899 238.864C507.216 228.787 503.337 219.018 500.575 208.95C498.01 199.596 496.648 189.983 495.274 180.396C494.703 176.41 494.403 172.144 493.451 168.24C492.992 166.355 492.22 163.905 490.826 162.485C489.185 160.812 487.652 160.881 485.463 160.855ZM475.318 216.18C469.077 217.148 450.622 219.483 447.153 224.281C445.97 225.918 446.474 228.987 447.119 230.733C447.848 232.704 448.942 234.206 450.787 235.216C452.195 235.299 453.358 235.127 454.725 234.857C460.665 233.772 466.614 232.739 472.572 231.758C476.24 231.172 480.119 230.916 483.676 229.873C484.494 227.76 483.71 221.604 482.624 219.474C481.947 218.147 480.781 216.683 479.314 216.197C478.133 215.806 476.531 215.993 475.318 216.18ZM701.701 217.317C697.953 223.008 685.932 227.731 679.248 229.118C665.868 232.028 651.879 229.377 640.491 221.774C638.941 220.735 637.463 219.597 635.994 218.448C633.66 224.359 631.017 228.75 626.491 233.222C626.429 241.825 628.468 249.321 634.555 255.685C635.741 256.926 637.126 258.005 638.464 259.077C653.077 267.715 671.865 268.696 688.084 264.589C702.38 260.968 709.078 254.98 717.946 243.625C717.785 241.336 718.072 237.906 716.329 236.213C714.844 234.77 712.507 233.864 710.687 232.885C705.371 230.023 703.582 223.337 702.201 217.809L701.701 217.317ZM727.793 232.161C726.385 232.372 725.128 232.19 724.208 233.328C725.033 246.89 726.01 260.488 726.537 274.062C727.144 289.668 727.352 305.567 728.936 321.102L737.377 320.656C739.104 320.571 741.341 320.735 742.89 319.926C743.49 313.255 740.191 293.433 739.351 285.717C737.913 272.523 736.796 259.371 735.1 246.201C734.579 242.154 734.455 237.393 733.115 233.542C731.483 232.276 729.883 232.141 727.894 232.141C727.86 232.141 727.827 232.154 727.793 232.161ZM740.146 232.518C743.171 246.206 744.173 260.636 745.556 274.581C746.566 284.765 747.924 294.902 749.121 305.064C749.569 308.865 749.654 312.804 750.25 316.561C750.845 320.318 755.248 320.428 755.912 325.283C757.471 336.678 758.005 348.349 759.224 359.804C760.558 372.34 762.592 384.838 764.489 397.298C765.235 402.2 765.491 409.523 767.493 413.967C771.784 414.701 777.709 414.648 782.022 414.01L783.507 414.095C784.256 413.134 783.883 412.342 783.744 411.152C783.29 407.259 782.307 403.357 781.669 399.483C780.554 392.336 779.488 385.181 778.47 378.019C774.033 347.299 769.695 316.772 764.257 286.191C761.749 272.089 760.111 254.44 756.162 241.028C755.654 239.301 755.103 237.946 753.638 236.832C750.131 234.168 744.469 232.483 740.146 232.518ZM617.486 233.339C615.394 234.414 613.482 235.067 612.683 237.45C611.001 242.471 612.18 258.467 612.265 264.445C612.59 287.31 612.842 308.604 614.152 331.538C623.647 330.786 718.892 322.416 720.463 321.488C720.648 320.484 720.718 319.647 720.66 318.627C719.776 297.789 718.435 276.475 719.121 255.635C703.433 269.324 684.723 274.991 663.977 273.614C650.453 272.715 637.125 269.397 627.831 258.825C621.784 251.947 619.954 245.288 619.215 236.406C619.073 234.706 619.322 233.795 617.486 233.339ZM479.755 238.18C468.127 239.716 456.025 241.877 444.714 244.996C445.095 248.001 445.034 253.257 447.708 255.209C448.979 256.136 450.711 255.582 452.125 255.31C457.901 254.348 483.848 251.207 487.097 248.547C487.841 246.06 487.109 242.603 485.916 240.329C485.436 239.414 484.699 238.579 483.715 238.198C482.494 237.725 481.016 238.006 479.755 238.18ZM603.525 239.538C599.453 240.848 595.412 242.109 591.533 243.936C591.328 256.316 586.41 328.964 589.434 334.162L589.666 334.329C594.61 333.984 599.603 333.508 604.559 333.463C604.553 325.217 604.64 240.167 604.445 239.708L603.525 239.538ZM763.763 242.876C766.649 252.997 768.118 263.507 769.914 273.866C771.81 284.802 773.89 295.723 775.707 306.668C777.341 316.511 778.675 326.376 780.623 336.167C790.978 347.963 809.068 362.42 821.376 373.022C829.533 367.486 836.919 359.711 843.715 352.585C851.461 343.847 858.025 334.27 864.173 324.361C838.478 300.303 810.775 277.713 782.826 256.348C777.536 252.305 769.8 245.244 763.763 242.876ZM584.044 247.947C579.375 250.509 574.992 253.249 570.918 256.692C570.506 266.38 568.938 275.993 568.063 285.646C566.656 301.168 565.945 319.999 566.625 335.525C571.77 335.318 576.872 334.89 581.997 334.425C582.566 309.627 581.583 284.671 583.592 259.921C583.775 257.675 585.446 249.419 584.044 247.947ZM484.048 258.213C479.047 258.942 449.421 262.334 447.544 264.655C447.403 266.719 447.632 270.272 449.058 271.869C450.186 273.133 452.357 274.559 454.046 274.488C460.121 273.813 486.582 270.377 489.902 266.067C490.56 265.214 491.064 264.215 490.846 263.1C490.563 261.65 488.498 259.178 487.269 258.423C486.16 257.743 485.249 257.963 484.048 258.213ZM213.666 263.126C193.031 267.564 172.345 271.755 151.61 275.699C145.533 276.912 132.938 278.548 127.637 280.573C126.078 286.243 127.71 299.588 127.827 306.07L129.339 385.003L136.342 715.002L138.337 796.176C138.701 812.668 138.767 829.073 139.336 845.566C139.832 859.934 139.018 874.856 140.545 889.118L140.508 890.505C143.352 892.17 218.397 891.842 228.815 891.594C228.436 882.695 228.725 873.809 228.493 864.912L226.274 767.346C225.91 752.364 224.94 737.381 224.564 722.407L218.634 472.521L215.101 295.001C215.005 291.355 215.073 265.484 214.464 263.985C214.341 263.683 214.066 263.468 213.867 263.21L213.666 263.126ZM561.296 263.933C550.318 273.386 542.256 283.672 532.039 292.962C533.429 297.351 536.359 301.571 538.717 305.526C543.224 313.082 547.454 320.298 550.212 328.708C551.809 334.03 553.707 339.333 555.11 344.698L555.693 344.731C555.847 344.516 556.014 344.31 556.157 344.086C557.918 341.32 557.266 328.621 557.336 324.821C557.586 312.081 558.31 299.353 559.507 286.666C560.014 281.052 562.143 269.575 561.463 264.692C561.427 264.435 561.351 264.186 561.296 263.933ZM222.461 265.427C221.774 279.672 223.04 294.013 223.403 308.253L225.514 399.001L233.001 717.445C244.432 717.971 256.027 717.226 267.466 716.865L309.533 715.703C321.73 715.27 333.948 715.313 346.151 715.039L400.942 713.555L525.315 710.88C542.212 710.418 559.242 710.868 576.098 709.514C575.509 701.143 574.387 692.833 573.922 684.448C572.172 652.904 571.998 621.217 571.496 589.639C566.343 597.063 561.658 604.678 556.052 611.795C537.992 634.589 514.33 652.311 487.376 663.23C445.798 679.024 399.65 677.66 359.078 659.439C319.372 641.316 284.119 604.525 268.801 563.446C252.329 519.273 253.31 466.487 273.201 423.475C292.101 382.607 324.088 351.774 366.544 336.308C395.361 325.811 430.444 323.758 459.876 332.992C458.771 324.982 456.619 305.543 453.785 298.968C452.107 295.075 447.741 293.54 446.483 289.071C445.72 286.365 447.755 281.552 446.802 279.514C445.173 276.029 442.121 274.732 440.152 269.421C393.871 271.216 347.467 273.758 301.137 272.119C274.9 271.191 248.554 268.29 222.461 265.427ZM524.666 272.064C525.851 277.392 527.164 281.993 529.929 286.729C531.353 284.786 532.735 282.824 534.348 281.031C536.664 278.413 538.996 275.816 541.159 273.069L524.666 272.064ZM488.329 276.144C481.65 277.431 474.998 278.977 468.313 280.195C465.108 280.779 461.517 280.656 458.443 281.628C457.201 282.021 456.006 282.632 455.346 283.817C454.415 285.491 454.785 287.571 455.426 289.272C455.824 290.33 456.279 291.375 457.484 291.682C457.904 291.79 458.801 291.77 459.252 291.772C465.348 290.581 488.367 286.39 492.154 283.275C492.731 281.953 492.706 280.927 492.247 279.575C491.781 278.198 491.062 277.036 490.016 276.031C489.552 276.057 488.771 276.039 488.329 276.144ZM742.363 328.194C731.073 329.69 719.674 330.438 708.327 331.389C682.724 333.535 657.018 335.22 631.474 337.932C623.828 338.744 615.933 339.052 608.351 340.131C604.084 340.738 599.908 341.819 595.688 342.673L596.073 342.604C599.316 344.38 601.963 345.881 603.004 349.708C603.537 351.671 603.446 353.759 602.42 355.553C601.406 357.325 599.668 358.369 597.729 358.862C594.781 359.611 592.269 359.488 589.688 357.877C588.025 356.839 586.162 355.184 585.72 353.172C585.11 350.396 589.009 343.822 587.885 343.085C585.573 341.567 579.263 342.956 576.567 343.299C578.092 345.706 579.34 348.044 579.738 350.907C581.224 361.607 580.286 374.099 580.331 384.994C580.461 416.343 579.315 447.649 579.919 479.018L579.776 488.461C590.384 487.346 601.032 486.805 611.658 485.913C646.11 483.032 680.603 480.653 715.126 478.776C726.067 478.176 737.084 477.754 748.037 477.362C754.302 477.138 760.677 477.16 766.909 476.51C763.416 459.803 761.923 442.438 759.632 425.509C755.226 392.959 750.944 360.485 747.894 327.769C746.109 327.902 744.108 327.865 742.363 328.194ZM869.639 329.523C861.052 345.464 842.232 367.472 827.093 377.98C829.497 380.151 835.043 384.133 835.484 387.341C817.516 413.099 800.221 437.596 784.465 464.823C782.102 468.907 778.328 473.66 776.705 478.021C775.964 480.01 776.617 482.897 776.984 484.957C780.585 505.2 785.201 525.318 789.795 545.357C791.693 553.636 794.248 562.076 795.679 570.416C802.767 572.304 808.779 571.451 815.156 567.864C815.316 567.774 815.472 567.678 815.629 567.585L814.593 560.612L813.938 560.19C813.704 560.288 813.471 560.392 813.234 560.483C811.089 561.308 808.252 561.296 805.963 561.276C802.827 557.253 800.708 552.711 798.516 548.13L798.88 547.623C804.493 539.956 811.52 533.18 817.475 525.723C836.039 502.115 853.892 477.956 871.01 453.278C881.238 438.81 894.923 420.533 902.652 404.826C906.725 396.548 910.601 387.016 909.237 377.613C906.953 361.873 894.693 351.219 883.475 341.261C878.937 337.233 874.529 333.132 869.639 329.523ZM419.958 335.702C376.573 337.866 342.153 353.571 312.918 385.7C283.308 418.243 269.219 464.524 271.427 508.109C273.856 551.445 293.225 592.088 325.355 621.27C354.962 648.004 396.944 664.351 436.93 662.224C477.45 660.103 515.497 642.08 542.805 612.069C552.506 601.228 566.256 582.805 570.516 568.85C572.409 562.649 571.073 553.742 571.161 547.254C571.425 527.958 571.333 508.795 571.045 489.497C570.9 479.751 571.27 469.889 570.526 460.165C569.503 446.793 549.92 413.223 540.29 403.623C537.823 406.974 535.392 410.348 532.679 413.507C530.524 415.795 528.416 418.138 526.069 420.232C550.21 447.658 563.986 483.898 561.475 520.681C559.276 552.886 542.008 584.933 517.739 605.873C488.894 630.762 456.267 640.244 418.435 637.439C388.739 635.237 358.013 619.124 338.68 596.728C328.655 585.116 318.662 570.508 314.074 555.791C299.577 545.816 290.241 532.026 287.041 514.733C283.835 497.408 287.366 477.282 297.482 462.718C300.78 457.97 305.349 453.929 308.407 449.123C311.212 444.715 312.679 439.121 314.565 434.258C316.41 429.499 318.631 424.798 321.041 420.305C337.81 389.053 369.298 365.561 404.313 359.347C424.74 355.722 447.053 356.678 466.297 364.942C464.583 357.56 463.793 349.907 461.766 342.625C453.389 336.841 430.028 335.165 419.958 335.702ZM569.604 343.715C567.18 346.065 565.661 349.257 563.865 352.085C562.377 354.428 560.511 356.818 559.356 359.322C556.538 365.429 557.95 377.237 557.178 384.229C556.402 391.256 554.41 397.752 551.746 404.271C556.334 410.982 561.461 417.237 565.606 424.252C567.843 427.632 570.282 430.992 572.119 434.609L572.379 371.132C572.445 364.179 573.482 356.842 573.105 349.948C572.995 347.943 572.249 345.46 570.623 344.149C570.264 343.859 570.009 343.825 569.604 343.715ZM780.878 344.708C781.756 359.693 784.594 374.195 787.072 388.961C788.638 398.297 789.528 407.236 792.258 416.353C792.858 418.356 793.713 420.153 792.243 422.034C790.744 423.951 787.557 423.776 785.327 424.05C786.038 432.229 787.066 440.192 785.856 448.392C790.19 441.274 795.004 434.503 799.816 427.705C806.16 418.526 812.56 409.387 819.017 400.287C822.23 395.742 825.27 390.986 828.745 386.639C822.819 380.509 815.978 375.172 809.634 369.464C801.571 362.212 789.765 350.15 780.878 344.708ZM416.778 364.704C385.928 367.238 359.137 381.671 339.166 405.245C329.657 416.469 323.606 429.415 317.747 442.756C325.12 439.125 340.458 430.179 348.08 429.999C349.242 430.526 349.926 430.724 350.5 431.973C350.886 432.812 350.929 433.821 350.881 434.726C350.744 437.341 350.061 439.897 349.794 442.501C349.256 447.769 349.176 453.124 349.134 458.416C348.977 477.847 351.313 546.31 357.789 560.338C360.723 561.623 368.119 563.431 369.55 566.158C369.786 569.05 368.231 575.686 366.388 577.93C364.984 578.659 364.189 578.929 362.65 578.374C357.296 576.444 351.551 570.425 347.789 566.305C339.658 564.612 331.171 563.308 323.294 560.66C336.444 589.996 359.305 611.58 388.937 624.008C417.762 634.842 452.635 634.592 480.826 621.893C510.705 608.433 535.027 584.25 546.623 553.353C558.39 522.001 557.111 489.118 543.14 458.683C537.236 445.82 529.61 435 520.291 424.449C512.02 428.717 503.029 431.598 493.72 428.833C487.284 426.921 482.804 422.255 479.837 416.395C474.379 405.614 471.075 386.287 468.756 374.116C456.099 365.708 431.68 362.709 416.778 364.704ZM766.69 421.463C769.831 436.985 771.981 453.511 773.395 469.283L776.1 465.283C776.834 463.896 778.031 462.076 778.265 460.521C779.117 454.863 778.519 428.057 776.897 422.786C775.918 421.713 774.694 421.556 773.303 421.455C771.138 421.298 768.861 421.378 766.69 421.463ZM760.165 483.279C752.718 483.531 745.285 483.749 737.857 484.365C738.358 489.141 738.425 493.948 738.567 498.744L751.284 498.397C757.881 497.739 764.438 497.698 771.062 497.733L770.815 497.107C769.2 492.928 769.484 486.587 766.285 483.521C764.313 482.657 762.253 483.154 760.165 483.279ZM720.947 484.762C706.68 486.248 692.254 486.033 678.011 487.7C684.032 492.045 683.708 494.766 685.908 501.42L691.391 501.036C694.003 501.56 725.247 499.404 731.488 499.293C731.5 494.312 731.606 489.501 732.152 484.543C728.416 484.554 724.68 484.627 720.947 484.762ZM665.309 488.237L633.577 490.269C628.268 490.612 622.344 490.432 617.176 491.609C615.637 493.942 614.989 502.235 615.429 505.067C616.219 505.796 616.348 505.59 617.376 505.616C630.917 505.242 644.271 503.725 657.777 502.889C659.848 497.328 662.969 492.314 667.558 488.505L667.261 488.05L665.309 488.237ZM967.804 489.671C956.75 491.176 945.22 495.63 935.987 501.897C917.5 502.632 898.79 502.388 880.289 502.192C868.003 502.062 855.61 501.718 843.341 502.525C836.63 510.569 829.654 518.909 823.822 527.609C829.326 532.961 833.727 537.92 833.689 546.097C833.671 550.037 832.574 553.324 831.023 556.866C828.159 563.407 829.867 586.191 829.921 594.595C830.012 608.822 829.294 622.935 828.584 637.138C828.305 642.73 828.596 649.085 827.482 654.529C827.224 655.789 826.835 656.547 825.905 657.466L824.782 657.691C823.457 656.787 823.033 655.866 822.726 654.287C819.364 637.025 818.947 617.744 818.907 600.181C818.888 591.485 819.711 582.337 818.548 573.72C811.149 577.129 805.628 578.002 797.561 577.451C798.76 583.13 799.922 588.79 800.845 594.522C803.448 612.661 805.875 630.824 808.125 649.01C809.465 659.078 811.673 669.741 812.068 679.854L874.322 680.043C885.903 680.068 903.043 681.207 914.083 678.777C919.183 677.677 923.846 675.099 927.489 671.364C930.825 667.99 932.884 663.919 934.439 659.495C937.985 649.408 940.357 638.675 943.127 628.343L960.581 561.104L971.693 520.066C973.464 513.482 977.648 501.434 977.452 494.789C977.413 493.473 976.909 492.341 975.874 491.498C973.605 489.65 970.564 489.684 967.804 489.671ZM604.85 492.204C596.442 492.999 588.005 493.902 579.563 494.226C579.624 497.81 578.656 504.582 581.14 507.381C582.506 507.898 583.703 507.901 585.136 507.925C592.623 506.746 600.615 506.732 608.203 506.42C608.525 502.811 610.253 495.327 608.069 492.326C606.823 491.851 606.128 492.004 604.85 492.204ZM668.341 496.342C667.099 497.795 665.113 499.722 665.163 501.783C665.181 502.507 665.623 502.585 666.144 502.988C667.542 502.684 668.595 502.811 669.335 501.429C669.962 500.259 669.663 498.867 669.173 497.699C668.959 497.188 668.739 496.727 668.341 496.342ZM767.249 503.786C757.688 504.169 748.132 504.649 738.581 505.226C739.737 523.17 747.238 536.578 760.674 548.416C763.401 550.819 766.304 553.061 769.215 555.238C775.101 559.312 781.185 563.046 787.154 566.99C783.267 551.33 779.542 535.631 775.978 519.894C774.787 514.866 774.309 508.449 772.215 503.814C770.486 503.594 768.983 503.627 767.249 503.786ZM721.139 505.72C709.535 506.425 697.902 507.307 686.283 507.699C686.539 515.131 689.632 534.559 685.036 539.837C684.862 540.037 684.66 540.213 684.472 540.401L682.889 540.353C678.538 535.649 680.521 516.599 678.808 509.064C678.23 523.584 681.161 538.041 679.608 552.563C682.622 552.026 685.896 551.043 688.795 552.412C689.611 553.621 689.518 553.735 689.428 555.212C688.696 556.192 688.619 556.337 687.336 556.523C683.735 557.043 680.079 556.413 676.376 557.032C676.943 577.995 677.249 598.967 678.618 619.898C678.963 625.171 679.011 630.656 679.596 635.892C679.9 638.605 682.051 640.492 682.426 643.095C686.169 669.426 690.364 695.691 695.011 721.878L703.209 766.804C704.834 775.261 707.017 783.834 708.271 792.332C708.503 793.911 708.134 795.568 707.804 797.107C708.531 797.63 709.035 797.8 709.874 798.073C712.624 801.799 714.301 806.971 716.115 811.227C724.155 830.093 734.159 854.529 735.65 875.018C765.153 873.671 794.581 871.705 824.056 869.88C816.721 771.283 805.118 673.049 789.279 575.457C765.825 561.966 741.49 547.333 733.854 519.445C732.562 514.728 732.058 510.109 731.836 505.237C728.429 505.361 724.47 505.125 721.139 505.72ZM669.188 508.776L662.916 509.002C660.535 519.383 659.617 530.17 659.515 540.816C659.462 546.266 659.829 551.887 659.425 557.313C659.336 558.507 659.083 559.099 658.358 560.038C657.266 560.594 657.113 560.663 655.901 560.557C654.215 559.376 653.746 557.792 653.395 555.831C651.329 544.314 653.573 521.532 655.606 509.504C641.976 509.224 628.249 511.123 614.63 511.723C611.428 535.084 605.694 558.101 590.361 576.708C587.1 580.664 583.36 583.813 579.878 587.475C580.225 609.239 580.322 631.122 581.263 652.865C584.306 718.368 590.784 783.666 600.669 848.49C602.699 861.923 603.628 875.915 606.978 889.076C622.79 888.047 638.609 887.111 654.432 886.269C663.055 885.83 672.374 886.266 680.819 884.593C683.062 863.377 688.152 842.618 693.192 821.919C695.325 813.161 697.049 803.752 700.27 795.326C698.203 789.31 697.318 782.604 696.14 776.353C693.842 764.202 691.715 752.02 689.757 739.81C684.615 708.72 678.021 677.595 674.28 646.302C673.855 642.748 675.129 639.756 675.061 636.38C674.952 631.006 673.99 625.485 673.674 620.085C673.011 606.577 672.427 593.066 671.922 579.551C671.369 565.172 671.051 550.683 670.792 536.293C670.639 527.841 672.339 517.036 669.952 508.97L669.188 508.776ZM598.773 512.751C592.534 513.238 586.268 514.042 580.019 514.29C579.612 536.051 579.281 557.917 579.29 579.681L582.983 575.672C595.857 560.158 605.529 532.824 606.761 512.397C604.323 512.476 601.11 512.224 598.773 512.751ZM819.852 532.316C816.922 535.648 814.226 539.321 811.003 542.365C814.437 548.619 817.374 554.583 819.654 561.377L820.322 561.83C823.827 558.005 826.87 549.838 826.685 544.711C826.512 539.889 824.245 536.371 820.851 533.145C820.397 532.713 820.29 532.647 819.852 532.316ZM826.362 565.464C824.579 567.314 822.91 569.12 821.401 571.212C821.948 581.144 821.504 590.89 821.543 600.814C821.605 616.329 822.16 633.023 824.313 648.386L824.779 648.642C826.831 641.554 829.113 570.817 826.425 565.552C826.408 565.519 826.383 565.493 826.362 565.464ZM568.769 715.752L347.101 720.667L262.521 722.688C252.81 722.86 243.126 723.672 233.41 723.499C234.251 779.491 235.608 835.474 237.481 891.441C245.025 891.741 252.576 891.838 260.125 891.732C339.188 891.993 418.252 891.613 497.308 890.591L556.735 890.056C570.07 890.012 584.276 890.633 597.51 889.123C593.697 864.037 590.305 838.889 587.335 813.689C584.933 795.984 582.743 778.25 580.766 760.491C579.14 745.496 578.039 730.451 576.381 715.46L568.769 715.752ZM704.895 808.293C702.01 823.814 697.6 839.095 694.398 854.571C692.288 864.769 691.516 875.536 688.919 885.57L713.876 885.484L730.509 885.382C726.986 875.358 723.741 865.247 720.049 855.282C715.385 842.698 706.407 822.463 705.23 809.462C705.169 808.791 705.201 809.047 704.895 808.293ZM818.676 878.781C802.511 879.801 786.357 881.177 770.18 881.979C761.032 882.433 751.778 882.225 742.656 882.905C741.286 883.007 739.801 883.065 738.663 883.899C739.054 885.852 739.252 888.81 740.485 890.378L741.376 890.534C769.439 890.77 797.517 886.708 825.593 886.392C825.456 884.185 825.596 881.517 824.555 879.539C822.551 878.104 821.035 878.508 818.676 878.781ZM672.641 894.236L630.158 896.37C622.692 896.721 615.002 896.543 607.585 897.353L608.827 904.892L614.862 904.683C636.754 904.388 658.676 902.249 680.567 901.464C680.516 898.964 680.551 896.43 680.36 893.939C677.964 893.979 674.936 893.665 672.641 894.236ZM814.42 895.708L813.726 895.745C811.051 895.916 809.98 896.056 808.125 898.085C805.676 900.766 801.139 911.859 798.691 912.477C797.242 911.799 797.099 911.731 796.276 910.369C795.763 905.414 800.095 900.317 801.985 895.866L744.525 898.777C743.839 904.499 743.59 910.242 743.293 915.994C761.669 917.449 780.196 920.726 798.512 923.033C824.302 926.254 850.235 928.212 876.216 928.9C882.553 928.834 895.672 929.754 901.038 926.924C901.848 925.849 901.818 925.942 901.647 924.605C897.747 919.141 889.178 918.126 883.005 916.896C880.73 920.215 878.926 924.538 876.17 927.371C874.843 927.44 874.6 927.368 873.598 926.342C872.835 925.56 872.286 924.079 872.516 923.024C873.099 920.345 875.159 916.7 876.446 914.185C873.167 913.379 869.93 912.506 866.555 912.216C864.891 915.978 863.397 921.163 859.654 923.306L858.228 922.34C858.01 917.55 859.733 914.209 861.477 909.901C856.462 908.36 851.541 907.545 846.338 906.954C846.201 907.113 846.061 907.271 845.927 907.432C843.369 910.49 841.768 916.271 838.158 917.845C837.427 917.716 837.08 917.879 836.681 917.165C835.783 915.558 836.088 912.964 836.719 911.305C837.589 909.02 839.476 906.495 840.696 904.311C836.969 903.085 833.344 901.775 829.733 900.239C827.861 903.35 821.017 915.764 818.373 916.805C818.245 916.855 818.106 916.868 817.973 916.899C816.653 915.948 816.468 915.787 815.836 914.298C816.038 908.502 824.039 901.993 823.175 897.354C821.325 895.494 818.076 895.614 815.528 895.639C814.951 895.644 814.912 895.657 814.42 895.708ZM669.403 910.209L634.107 912.23C626.018 912.66 617.56 912.756 609.558 914.073C611.54 915.531 613.794 916.754 614.156 919.409C614.271 920.249 614.066 920.435 613.739 921.157C612.372 921.915 611.107 921.983 609.6 921.618C607.452 921.099 605.533 918.865 603.948 917.401C597.469 919.575 590.618 921.997 584.806 925.652C587.918 926.87 589.984 927.414 591.638 930.547L591.619 931.599C590.121 932.692 588.845 932.831 587.019 932.525C584.094 932.033 581.541 930.06 579.115 928.454C573.83 931.532 568.018 933.716 562.565 936.491C563.716 937.941 565.028 939.603 564.965 941.574C564.943 942.278 564.897 942.293 564.693 942.859C563.122 943.625 561.892 943.449 560.22 942.855C557.001 941.71 555.345 940.129 551.853 941.692C550.086 942.483 548.398 943.531 546.726 944.505C543.52 946.421 540.485 948.293 537.773 950.895C559.246 949.7 580.447 946.882 601.25 941.278C620.069 936.209 638.252 929.399 656.689 923.161C661.999 921.364 676.951 917.732 680.2 913.708C680.708 913.079 680.826 912.62 680.909 911.85C680.505 911.01 679.998 910.642 679.113 910.349C676.19 909.384 672.429 910 669.403 910.209Z" fill="#020304"/>
<path d="M630.705 113.243C629.682 113.162 629.693 113.305 628.854 112.598C628.779 112.023 628.735 111.817 628.716 111.273C628.555 106.83 629.931 98.8496 632.928 95.5081C634.784 94.9086 639.927 97.2252 642.076 97.8214C661.157 103.115 681.578 102 698.977 92.0312C699.004 92.0535 699.034 92.0726 699.058 92.0982C701.454 94.6352 702.239 106.62 702.155 110.409C694.762 110.638 685.742 110.18 678.554 111.653C673.953 112.595 670.702 117.208 665.725 116.815C663.505 116.64 661.579 114.265 659.239 113.845C650.259 112.233 639.81 112.842 630.705 113.243Z" fill="#FEFEFE"/>
<path d="M678.398 118.729C686.375 118.717 694.246 118.462 702.195 117.789C703.981 117.615 705.829 117.279 707.579 117.775C707.749 118.37 707.9 118.9 707.951 119.521C708.241 123.089 708.044 139.112 706.087 141.301C699.11 140.618 692.125 140.365 685.121 140.164C684.134 140.281 683.391 140.278 682.412 140.101C678.409 136.367 678.715 124.043 678.398 118.729ZM692.727 122.323C690.236 123.746 688.266 125.732 687.382 128.534C686.952 129.896 686.88 131.405 687.484 132.732C688.156 134.209 689.383 135.109 690.927 135.505C691.522 135.658 692.126 135.768 692.731 135.877C695.335 134.337 696.157 132.766 696.949 129.861C697.42 128.131 697.438 125.957 696.422 124.409C695.714 123.33 694.673 122.532 693.387 122.356C693.168 122.326 692.947 122.334 692.727 122.323Z" fill="#FEFEFE"/>
<path d="M630.636 142.937C630.681 135.315 629.502 127.643 629.336 119.984C638.775 120.039 648.277 119.706 657.632 121.172C657.071 127.908 656.278 134.717 655.216 141.392C652.616 143.054 634.967 142.903 630.636 142.937ZM642.189 124.599C640.343 126.414 638.197 128.898 638.147 131.663C638.122 133.044 638.49 134.204 639.445 135.231C640.94 136.839 643.598 136.788 645.631 136.859C647.576 135.347 648.796 133.861 649.107 131.339C649.314 129.659 648.98 127.901 647.894 126.564C647.056 125.533 645.86 124.666 644.523 124.478C643.8 124.377 642.917 124.522 642.189 124.599Z" fill="#FEFEFE"/>
<path d="M692.733 135.882C692.128 135.773 691.524 135.663 690.929 135.51C689.385 135.114 688.158 134.214 687.486 132.737C686.882 131.41 686.954 129.901 687.384 128.539C688.268 125.737 690.238 123.751 692.729 122.328C692.949 122.339 693.17 122.331 693.389 122.361C694.675 122.537 695.716 123.335 696.424 124.414C697.44 125.962 697.422 128.136 696.951 129.866C696.159 132.771 695.337 134.342 692.733 135.882Z" fill="#020304"/>
<path d="M645.634 136.861C643.601 136.79 640.943 136.841 639.448 135.233C638.493 134.206 638.125 133.046 638.15 131.665C638.2 128.9 640.346 126.416 642.192 124.601C642.92 124.524 643.803 124.379 644.526 124.48C645.863 124.668 647.059 125.535 647.897 126.566C648.983 127.903 649.317 129.661 649.11 131.341C648.799 133.863 647.579 135.349 645.634 136.861Z" fill="#020304"/>
<path d="M732.752 136.573C732.022 132.58 730.791 129.008 729.311 125.242C731.88 125.602 733.661 126.099 735.626 127.859C738.297 130.252 739.579 133.509 739.673 137.06C739.795 141.708 737.849 146.613 734.49 149.845C730.654 153.537 727.363 153.587 722.371 153.475C721.6 150.577 721.216 146.747 721.61 143.749C722.125 144.638 722.631 145.6 723.259 146.413C724.11 147.515 724.66 147.677 725.995 147.794C730.162 145.688 731.365 140.68 732.752 136.573Z" fill="#FEFEFE"/>
<path d="M654.115 149.625C653.838 151.472 653.539 153.343 653.473 155.211C653.384 157.738 653.846 159.92 655.641 161.782C659.088 165.358 665.188 166.841 670.002 166.678C672.133 166.606 674.748 166.102 676.075 164.238C677.063 162.851 676.828 161.491 676.383 159.974C673.47 157.376 668.912 159.506 665.269 159.168C664.002 159.05 662.798 158.534 662.078 157.43C661.432 156.441 661.257 155.005 661.307 153.847C661.45 150.533 662.37 147.043 662.846 143.745C663.672 138.021 664.274 132.266 665.085 126.539C667.709 126.525 670.333 126.455 672.955 126.328C673.541 131.918 673.769 142.163 677.81 146.251C683.663 148.837 706.069 148.607 713.498 147.961C715.857 164.805 714.666 186.193 705.845 201.084C700.091 210.91 690.579 217.965 679.507 220.621C665.586 224.015 653.988 221.301 641.942 214.01C639.877 212.272 637.895 210.266 636.093 208.258C632.918 204.718 630.142 200.686 628.272 196.299C623.613 185.371 620.33 161.362 621.518 149.13C621.637 147.897 621.66 147.256 622.665 146.449L624.946 146.941C625.392 147.416 625.826 147.884 626.329 148.3C631.321 152.417 647.547 150.072 654.115 149.625ZM690.419 168.34C683.363 175.329 677.741 180.678 666.977 180.602C660.451 180.556 655.936 178.404 650.194 177.782C649.045 177.657 648.161 177.862 647.129 178.342C646.763 179.282 646.671 178.966 647.092 179.831C647.956 181.606 649.318 182.472 651.014 183.351C660.408 187.267 669.948 188.735 679.642 184.779C684.168 182.933 690.178 178.915 692.164 174.242C692.726 172.921 692.826 171.902 692.499 170.493C691.847 169.58 691.371 168.947 690.419 168.34Z" fill="#FEFEFE"/>
<path d="M440.76 259.489C428.026 259.924 415.293 260.861 402.557 261.38C376.617 262.54 350.649 262.949 324.685 262.607C313.369 262.524 302.024 262.601 290.719 262.064C277.91 261.455 265.036 259.832 252.273 258.565C243.723 257.715 230.394 257.543 222.679 254.922C221.353 249.091 221.773 242.094 221.681 236.087C221.471 226.161 221.344 216.233 221.3 206.304C221.076 190.683 220.553 175.08 220.422 159.451C220.374 153.833 220.038 148.045 220.305 142.441C220.391 140.639 220.972 138.983 221.857 137.414C224.284 133.11 227.973 130.901 232.529 129.5C254.341 130.578 276.221 133.103 297.968 135.13C328.531 137.723 359.077 140.512 389.603 143.498L446.581 148.899C459.376 150.077 472.535 150.655 485.141 153.199C482.94 154.82 481.008 156.54 479.398 158.77C470.145 171.587 472.493 194.515 475.184 209.248C466.442 210.837 446.095 212.957 441.032 220.258C438.275 224.233 439.176 228.677 440.091 233.077C440.757 234.639 441.527 236.21 441.881 237.877C439.695 239.745 438.666 241.402 437.98 244.205C436.696 249.457 438.045 254.94 440.76 259.489ZM357.057 164.52C356.463 165.559 355.965 166.493 355.749 167.682C355.083 171.341 355.09 187.097 355.987 190.316C356.299 191.437 356.691 192.114 357.585 192.889C363.331 194.289 391.89 196.097 397.561 195.194C401.04 191.159 399.439 184.303 399.423 179.358C399.414 176.707 399.789 174.008 399.632 171.366C399.572 170.355 399.457 169.575 398.799 168.788C393.312 166.338 364.33 164.544 357.057 164.52ZM290.491 170.157C276.352 172.535 264.454 178.574 256.046 190.517C249.412 199.941 247.183 211.856 249.283 223.126C251.395 234.682 258.076 244.899 267.816 251.467C278.307 258.503 290.426 259.801 302.663 258.106C317.419 254.221 331.269 247.068 339.171 233.416C344.615 224.142 346.019 213.041 343.055 202.703C339.875 191.283 331.516 181.524 321.263 175.773C312.064 170.613 300.918 168.958 290.491 170.157Z" fill="#FEFEFE"/>
<path d="M613.892 158.235C612.208 158.552 610.549 158.891 608.838 158.585C605.886 158.058 603.303 155.926 601.705 153.458C599.229 149.632 598.062 144.08 599.059 139.609C600.045 135.188 602.303 133.136 605.968 130.797C606.058 130.831 606.15 130.858 606.238 130.897C607.573 131.502 608.794 132.03 609.423 133.424C609.091 135.566 607.455 136.671 605.958 138.095C604.61 141.715 606.309 146.955 607.064 150.666C609.281 152.807 610.651 152.866 613.362 153.909C614.719 154.431 614.79 154.743 615.38 155.977C615.038 157.268 614.909 157.347 613.892 158.235Z" fill="#FEFEFE"/>
<path d="M127.661 273.24C126.398 265.4 126.883 257.169 126.811 249.252L126.497 205.12C126.402 192.906 124.929 179.639 125.698 167.592C125.88 164.74 126.492 162.321 127.953 159.845C129.983 156.404 133.279 152.88 136.776 150.917C145.355 146.103 161.322 143.53 171.234 140.996C180.138 138.719 188.972 136.124 197.829 133.665C198.33 133.614 198.831 133.56 199.333 133.533C203.197 133.325 207.968 134.374 210.864 137.096C211.972 138.138 213.021 139.587 213.292 141.106C214.624 148.56 213.699 159.467 213.856 167.291C214.446 196.751 213.616 226.381 214.846 255.808C190.179 260.568 165.636 266.009 140.899 270.388C136.467 271.25 132.054 272.2 127.661 273.24Z" fill="#FEFEFE"/>
<path d="M511.914 220.269C509.421 213.969 506.883 207.441 505.453 200.81C503.146 190.117 502.586 179.047 500.492 168.302C499.324 162.305 497.307 157.477 492.094 153.978C501.927 153.93 512.238 155.303 522.043 156.174L572.54 160.659C581.889 161.484 591.53 162.817 600.918 162.433C605.819 165.643 609.2 166.137 614.918 165.946C615.935 183.504 619.832 197.845 630.114 212.198C629.379 215.148 628.778 218.383 627.593 221.176C624.243 229.074 619.682 226.034 613.371 228.636C600.434 233.969 586.787 238.624 574.636 245.681C566.867 250.193 555.753 261.549 549.15 263.85C540.435 263.039 531.47 263.512 522.698 262.909C521.42 259.121 513.467 227.82 513.888 225.715C518.796 225.225 524.565 226.293 529.525 226.666L566.482 229.309C571.976 229.72 577.93 230.794 583.42 230.624C585.243 230.567 587.299 230.434 588.604 229.031C588.587 228.135 588.475 228.17 587.988 227.477L587.612 228.19L587.718 227.22C586.698 226.473 585.819 225.971 584.57 225.752C576.839 224.396 568.507 224.443 560.651 223.854L511.914 220.269Z" fill="#FEFEFE"/>
<path d="M480.976 208.895C480.581 207.189 480.227 205.474 479.914 203.751C477.733 191.16 477.807 171.741 485.464 160.852C487.653 160.878 489.186 160.809 490.827 162.482C492.221 163.902 492.993 166.352 493.452 168.237C494.404 172.141 494.704 176.407 495.275 180.393C496.649 189.98 498.011 199.593 500.576 208.947C503.338 219.015 507.217 228.784 509.9 238.861C514.077 254.553 516.687 270.584 521.746 286.065C530.09 311.6 549.689 329.524 548.605 358.424C547.906 377.056 536.807 400.741 523.006 413.266C515.805 419.802 508.807 422.922 498.969 422.395C496.179 421.843 493.317 421.205 491.065 419.367C480.353 410.622 464.76 318.251 462.773 298.651C469.297 297.821 488.403 293.939 493.934 291.254C496.684 289.918 498.891 287.727 499.819 284.772C501.334 279.949 499.356 275.267 497.061 271.085C499.744 261.295 496.498 261.505 495.874 253.425C495.654 250.574 496.268 247.893 495.65 245.041C494.669 240.506 493.848 237.198 491.325 233.171C492.441 226.908 492.827 220.453 489.335 214.767C487.224 211.328 484.81 209.872 480.976 208.895Z" fill="#FEFEFE"/>
<path d="M397.556 195.197C391.885 196.1 363.326 194.292 357.58 192.892C356.686 192.117 356.294 191.44 355.982 190.319C355.085 187.1 355.078 171.344 355.744 167.685C355.96 166.496 356.458 165.562 357.052 164.523C364.325 164.547 393.307 166.341 398.794 168.791C399.452 169.578 399.567 170.358 399.627 171.369C399.784 174.011 399.409 176.71 399.418 179.361C399.434 184.306 401.035 191.162 397.556 195.197ZM360.706 170.023C360.964 176.102 360.869 182.147 360.75 188.228C371.383 189.6 383.137 190.544 393.851 190.442C394.737 184.847 394.081 178.286 394.022 172.57C388.224 171.48 382.366 171.432 376.497 171.045C371.229 170.697 365.989 170.118 360.706 170.023Z" fill="#020304"/>
<path d="M651.013 183.355C649.317 182.476 647.955 181.61 647.091 179.835C646.67 178.97 646.762 179.286 647.128 178.346C648.16 177.866 649.044 177.661 650.193 177.786C655.935 178.408 660.45 180.56 666.976 180.606C677.74 180.682 683.362 175.333 690.418 168.344C691.37 168.951 691.846 169.584 692.498 170.497C692.825 171.906 692.725 172.925 692.163 174.246C690.177 178.919 684.167 182.937 679.641 184.783C669.947 188.739 660.407 187.271 651.013 183.355Z" fill="#020304"/>
<path d="M302.659 258.11C290.422 259.805 278.303 258.507 267.812 251.471C258.072 244.903 251.391 234.686 249.279 223.13C247.179 211.86 249.408 199.945 256.042 190.521C264.45 178.578 276.348 172.539 290.487 170.161C300.914 168.962 312.06 170.617 321.259 175.777C331.512 181.528 339.871 191.287 343.051 202.707C346.015 213.045 344.611 224.146 339.167 233.42C331.265 247.072 317.415 254.225 302.659 258.11ZM288.456 174.659C277.526 177.278 267.622 182.646 261.629 192.527C256.387 201.168 254.51 212.239 256.989 222.067C259.479 231.943 266.516 241.369 275.252 246.618C275.84 246.969 276.439 247.302 277.048 247.618L283.336 250.468C272.556 242.182 265.606 233.037 263.879 219.223C262.57 208.746 265.97 196.957 272.516 188.704C274.208 186.57 276.108 184.584 277.99 182.616C280.626 179.859 286.827 177.623 288.456 174.659ZM302.537 177.715C292.85 179.076 284.453 182.953 278.451 190.946C272.467 198.915 270.709 209.174 272.18 218.907C273.516 227.757 278.301 235.719 285.489 241.052C292.545 246.137 301.333 248.209 309.917 246.811C317.824 245.537 324.865 241.797 330.568 236.222C336.731 229.375 340.305 221.012 339.751 211.682C339.172 201.929 334.068 192.296 326.745 185.917C323.295 182.905 319.353 180.509 315.091 178.834C315.328 184.857 316.379 200.095 315.437 205.475C315.228 206.67 314.544 208.051 313.747 208.966C312.865 209.979 312.674 210.085 311.424 210.2C309.743 208.858 309.403 206.71 309.152 204.673C308.122 196.306 308.792 185.855 309.094 177.372C306.975 177.592 304.648 178.042 302.537 177.715Z" fill="#020304"/>
<path d="M360.755 188.228C360.874 182.147 360.969 176.102 360.711 170.023C365.994 170.118 371.234 170.697 376.502 171.045C382.371 171.432 388.229 171.48 394.027 172.57C394.086 178.286 394.742 184.847 393.856 190.442C383.142 190.544 371.388 189.6 360.755 188.228Z" fill="#FEFEFE"/>
<path d="M277.047 247.615C276.438 247.299 275.839 246.966 275.251 246.615C266.515 241.366 259.478 231.94 256.988 222.064C254.509 212.236 256.386 201.165 261.628 192.524C267.621 182.643 277.525 177.275 288.455 174.656C286.826 177.62 280.625 179.856 277.989 182.613C276.107 184.581 274.207 186.567 272.515 188.701C265.969 196.954 262.569 208.743 263.878 219.22C265.605 233.034 272.555 242.179 283.335 250.465L277.047 247.615Z" fill="#FEFEFE"/>
<path d="M330.567 236.217C324.864 241.792 317.823 245.532 309.916 246.806C301.332 248.204 292.544 246.132 285.488 241.047C278.3 235.714 273.515 227.752 272.179 218.902C270.708 209.169 272.466 198.91 278.45 190.941C284.452 182.948 292.849 179.071 302.536 177.71C304.647 178.037 306.974 177.587 309.093 177.367C308.791 185.85 308.121 196.301 309.151 204.668C309.402 206.705 309.742 208.853 311.423 210.195C312.673 210.08 312.864 209.974 313.746 208.961C314.543 208.046 315.227 206.665 315.436 205.47C316.378 200.09 315.327 184.852 315.09 178.829C319.352 180.504 323.294 182.9 326.744 185.912C334.067 192.291 339.171 201.924 339.75 211.677C340.304 221.007 336.73 229.37 330.567 236.217Z" fill="#FEFEFE"/>
<path d="M454.723 234.858C453.356 235.128 452.193 235.3 450.785 235.217C448.94 234.207 447.846 232.705 447.117 230.734C446.472 228.988 445.968 225.919 447.151 224.282C450.62 219.484 469.075 217.149 475.316 216.181C476.529 215.994 478.131 215.807 479.312 216.198C480.779 216.684 481.945 218.148 482.622 219.475C483.708 221.605 484.492 227.761 483.674 229.874C480.117 230.917 476.238 231.173 472.57 231.759C466.612 232.74 460.663 233.773 454.723 234.858Z" fill="#FEFEFE"/>
<path d="M635.997 218.443C637.466 219.592 638.944 220.731 640.494 221.77C651.882 229.373 665.871 232.023 679.251 229.113C685.935 227.726 697.956 223.003 701.704 217.312L702.204 217.805C703.585 223.333 705.374 230.018 710.69 232.88C712.51 233.859 714.847 234.765 716.332 236.208C718.075 237.901 717.788 241.331 717.949 243.62C709.081 254.975 702.383 260.964 688.087 264.585C671.868 268.692 653.08 267.711 638.467 259.073C637.129 258.001 635.744 256.921 634.558 255.68C628.471 249.316 626.432 241.82 626.494 233.217C631.02 228.745 633.663 224.354 635.997 218.443Z" fill="#FEFEFE"/>
<path d="M728.931 321.102C727.347 305.567 727.139 289.668 726.532 274.062C726.005 260.488 725.028 246.89 724.203 233.328C725.123 232.19 726.38 232.372 727.788 232.161C727.822 232.154 727.855 232.141 727.889 232.141C729.878 232.141 731.478 232.276 733.11 233.542C734.45 237.393 734.574 242.154 735.095 246.201C736.791 259.371 737.908 272.523 739.346 285.717C740.186 293.433 743.485 313.255 742.885 319.926C741.336 320.735 739.099 320.571 737.372 320.656L728.931 321.102Z" fill="#FEFEFE"/>
<path d="M782.024 414.008C777.711 414.646 771.786 414.699 767.495 413.965C765.493 409.521 765.237 402.198 764.491 397.296C762.594 384.836 760.56 372.338 759.226 359.802C758.007 348.347 757.473 336.676 755.914 325.281C755.25 320.426 750.847 320.316 750.252 316.559C749.656 312.802 749.571 308.863 749.123 305.062C747.926 294.9 746.568 284.763 745.558 274.579C744.175 260.634 743.173 246.204 740.148 232.516C744.471 232.481 750.133 234.166 753.64 236.83C755.105 237.944 755.656 239.299 756.164 241.026C760.113 254.438 761.751 272.087 764.259 286.189C769.697 316.77 774.035 347.297 778.472 378.017C779.49 385.179 780.556 392.334 781.671 399.481C782.309 403.355 783.292 407.257 783.746 411.15C783.885 412.34 784.258 413.132 783.509 414.093L782.024 414.008Z" fill="#FEFEFE"/>
<path d="M614.149 331.535C612.839 308.601 612.587 287.307 612.262 264.442C612.177 258.464 610.998 242.468 612.68 237.447C613.479 235.064 615.391 234.411 617.483 233.336C619.319 233.792 619.07 234.703 619.212 236.403C619.951 245.285 621.781 251.944 627.828 258.822C637.122 269.394 650.45 272.712 663.974 273.611C684.72 274.988 703.43 269.321 719.118 255.632C718.432 276.472 719.773 297.786 720.657 318.624C720.715 319.644 720.645 320.481 720.46 321.485C718.889 322.413 623.644 330.783 614.149 331.535Z" fill="#A22E2F"/>
<path d="M444.711 244.996C456.022 241.877 468.124 239.716 479.752 238.18C481.013 238.006 482.491 237.725 483.712 238.198C484.696 238.579 485.433 239.414 485.913 240.329C487.106 242.603 487.838 246.06 487.094 248.547C483.845 251.207 457.898 254.348 452.122 255.31C450.708 255.582 448.976 256.136 447.705 255.209C445.031 253.257 445.092 248.001 444.711 244.996Z" fill="#FEFEFE"/>
<path d="M591.533 243.937C595.412 242.11 599.453 240.849 603.525 239.539L604.444 239.709C604.639 240.168 604.553 325.218 604.559 333.464C599.603 333.509 594.609 333.985 589.665 334.33L589.434 334.163C586.41 328.965 591.328 256.317 591.533 243.937Z" fill="#FEFEFE"/>
<path d="M780.626 336.166C778.678 326.375 777.344 316.51 775.71 306.667C773.893 295.722 771.813 284.801 769.917 273.865C768.121 263.506 766.652 252.996 763.766 242.875C769.803 245.243 777.539 252.304 782.829 256.347C810.778 277.712 838.481 300.302 864.176 324.36C858.028 334.269 851.464 343.846 843.718 352.584C836.922 359.71 829.536 367.485 821.379 373.021C809.071 362.419 790.981 347.962 780.626 336.166Z" fill="#A22E2F"/>
<path d="M570.921 256.69C574.995 253.247 579.378 250.507 584.047 247.945C585.449 249.417 583.778 257.673 583.595 259.919C581.586 284.669 582.569 309.625 582 334.423C576.875 334.888 571.773 335.316 566.628 335.523C565.948 319.997 566.659 301.166 568.066 285.644C568.941 275.991 570.509 266.378 570.921 256.69Z" fill="#A22E2F"/>
<path d="M454.046 274.488C452.357 274.559 450.186 273.133 449.058 271.869C447.632 270.272 447.403 266.719 447.544 264.655C449.421 262.334 479.047 258.942 484.048 258.213C485.249 257.963 486.16 257.743 487.269 258.423C488.498 259.178 490.563 261.65 490.846 263.1C491.064 264.215 490.56 265.214 489.902 266.067C486.582 270.377 460.121 273.813 454.046 274.488Z" fill="#FEFEFE"/>
<path d="M140.547 889.117C139.02 874.855 139.834 859.933 139.338 845.565C138.769 829.072 138.703 812.667 138.339 796.175L136.344 715.001L129.341 385.002L127.829 306.069C127.712 299.587 126.08 286.242 127.639 280.572C132.94 278.547 145.535 276.911 151.612 275.698C172.347 271.754 193.033 267.563 213.668 263.125L213.869 263.209C214.068 263.467 214.343 263.682 214.466 263.984C215.075 265.483 215.007 291.354 215.103 295L218.636 472.52L224.566 722.406C224.942 737.38 225.912 752.363 226.276 767.345L228.495 864.911C228.727 873.808 228.438 882.694 228.817 891.593C218.399 891.841 143.354 892.169 140.51 890.504L140.547 889.117Z" fill="#FEFEFE"/>
<path d="M532.039 292.959C542.256 283.669 550.318 273.383 561.296 263.93C561.351 264.183 561.427 264.432 561.463 264.689C562.143 269.572 560.014 281.049 559.507 286.663C558.31 299.35 557.586 312.078 557.336 324.818C557.266 328.618 557.918 341.317 556.157 344.083C556.014 344.307 555.847 344.513 555.693 344.728L555.11 344.695C553.707 339.33 551.809 334.027 550.212 328.705C547.454 320.295 543.224 313.079 538.717 305.523C536.359 301.568 533.429 297.348 532.039 292.959Z" fill="#A22E2F"/>
<path d="M232.999 717.44L225.512 398.996L223.401 308.248C223.038 294.008 221.772 279.667 222.459 265.422C248.552 268.285 274.898 271.186 301.135 272.114C347.465 273.753 393.869 271.211 440.15 269.416C442.119 274.727 445.171 276.024 446.8 279.509C447.753 281.547 445.718 286.36 446.481 289.066C447.739 293.535 452.105 295.07 453.783 298.963C456.617 305.538 458.769 324.977 459.874 332.987C430.442 323.753 395.359 325.806 366.542 336.303C324.086 351.769 292.099 382.602 273.199 423.47C253.308 466.482 252.327 519.268 268.799 563.441C284.117 604.52 319.37 641.311 359.076 659.434C399.648 677.655 445.796 679.019 487.374 663.225C514.328 652.306 537.99 634.584 556.05 611.79C561.656 604.673 566.341 597.058 571.494 589.634C571.996 621.212 572.17 652.899 573.92 684.443C574.385 692.828 575.507 701.138 576.096 709.509C559.24 710.863 542.21 710.413 525.313 710.875L400.94 713.55L346.149 715.034C333.946 715.308 321.728 715.265 309.531 715.698L267.464 716.86C256.025 717.221 244.43 717.966 232.999 717.44Z" fill="#FEFEFE"/>
<path d="M529.927 286.727C527.162 281.991 525.849 277.391 524.664 272.062L541.157 273.067C538.994 275.814 536.662 278.411 534.346 281.029C532.733 282.822 531.351 284.784 529.927 286.727Z" fill="#FEFEFE"/>
<path d="M459.248 291.772C458.797 291.77 457.9 291.79 457.48 291.682C456.275 291.375 455.82 290.33 455.422 289.272C454.781 287.571 454.411 285.491 455.342 283.817C456.002 282.632 457.197 282.021 458.439 281.628C461.513 280.656 465.104 280.779 468.309 280.195C474.994 278.977 481.646 277.431 488.325 276.144C488.767 276.039 489.548 276.057 490.012 276.031C491.058 277.036 491.777 278.198 492.243 279.575C492.702 280.927 492.727 281.953 492.15 283.275C488.363 286.39 465.344 290.581 459.248 291.772Z" fill="#FEFEFE"/>
<path d="M596.069 342.601L595.684 342.67C599.904 341.816 604.079 340.735 608.346 340.128C615.928 339.049 623.824 338.741 631.47 337.929C657.014 335.217 682.72 333.532 708.323 331.386C719.67 330.435 731.069 329.687 742.359 328.191C744.104 327.862 746.105 327.899 747.89 327.766C750.94 360.482 755.222 392.956 759.628 425.506C761.919 442.435 763.412 459.8 766.905 476.507C760.673 477.157 754.298 477.135 748.033 477.359C737.08 477.751 726.063 478.173 715.122 478.773C680.599 480.65 646.106 483.029 611.654 485.91C601.028 486.802 590.38 487.343 579.772 488.458L579.915 479.015C579.311 447.646 580.457 416.34 580.327 384.991C580.282 374.096 581.22 361.604 579.734 350.904C579.336 348.041 578.087 345.703 576.562 343.296C579.259 342.953 585.568 341.564 587.88 343.082C589.004 343.819 585.106 350.393 585.716 353.169C586.158 355.181 588.021 356.836 589.684 357.874C592.265 359.485 594.777 359.608 597.725 358.859C599.664 358.366 601.402 357.322 602.416 355.55C603.442 353.756 603.533 351.668 603 349.705C601.959 345.878 599.312 344.377 596.069 342.601ZM733.06 331.061C729.98 332.432 727.704 334.035 726.365 337.25C725.504 339.318 725.405 341.794 726.328 343.858C727.22 345.854 729.017 347.555 731.109 348.231C732.802 348.779 734.893 348.604 736.654 348.523C739.522 347.446 742.15 346.068 743.427 343.109C744.306 341.073 744.197 338.657 743.238 336.671C742.174 334.467 739.893 332.285 737.495 331.623C736.09 331.235 734.515 331.07 733.06 331.061ZM704.405 362.203L639.301 369.282C629.176 370.401 618.463 370.861 608.458 372.606C607.164 372.832 606.29 373.012 605.271 373.915C603.468 380.002 609.156 420.166 610.951 428.264C612.045 433.204 613.517 438.13 615.949 442.59C618.221 446.758 621.425 450.906 625.004 454.034C635.796 462.588 647.839 465.937 661.581 464.32C676.123 462.609 695.087 455.408 704.325 443.584C718.666 425.227 713.517 399.157 711.012 377.828C710.532 373.738 710.931 369.505 710.397 365.529C710.23 364.291 709.771 363.485 708.971 362.523C707.478 361.684 706.031 362.031 704.405 362.203Z" fill="#FEFEFE"/>
<path d="M827.094 377.98C842.233 367.472 861.053 345.464 869.64 329.523C874.53 333.132 878.938 337.233 883.476 341.261C894.694 351.219 906.954 361.873 909.238 377.613C910.602 387.016 906.726 396.548 902.653 404.826C894.924 420.533 881.239 438.81 871.011 453.278C853.893 477.956 836.04 502.115 817.476 525.723C811.521 533.18 804.494 539.956 798.881 547.623L798.517 548.13C800.709 552.711 802.828 557.253 805.964 561.276C808.253 561.296 811.09 561.308 813.235 560.483C813.472 560.392 813.705 560.288 813.939 560.19L814.594 560.612L815.63 567.585C815.473 567.678 815.317 567.774 815.157 567.864C808.78 571.451 802.768 572.304 795.68 570.416C794.249 562.076 791.694 553.636 789.796 545.357C785.202 525.318 780.586 505.2 776.985 484.957C776.618 482.897 775.965 480.01 776.706 478.021C778.329 473.66 782.103 468.907 784.466 464.823C800.222 437.596 817.517 413.099 835.485 387.341C835.044 384.133 829.498 380.151 827.094 377.98ZM897.504 382.387C895.028 385.011 891.394 388.139 891.45 391.97C892 393.233 892.464 393.927 893.749 394.547C894.279 394.802 894.808 394.938 895.365 395.102C897.758 393.721 900.504 390.513 901.247 387.802C901.619 386.443 901.428 385.401 900.85 384.138C899.82 383.114 898.842 382.822 897.504 382.387Z" fill="#FEFEFE"/>
<path d="M736.657 348.524C734.896 348.605 732.805 348.78 731.112 348.232C729.02 347.556 727.224 345.855 726.332 343.859C725.409 341.795 725.507 339.319 726.368 337.251C727.707 334.036 729.983 332.434 733.063 331.062C734.518 331.071 736.093 331.236 737.498 331.624C739.896 332.286 742.177 334.468 743.241 336.672C744.2 338.658 744.309 341.074 743.43 343.11C742.153 346.069 739.525 347.447 736.657 348.524Z" fill="#020304"/>
<path d="M540.291 403.617C549.921 413.217 569.504 446.787 570.527 460.159C571.271 469.883 570.901 479.745 571.046 489.491C571.334 508.789 571.426 527.952 571.162 547.248C571.074 553.736 572.41 562.643 570.517 568.844C566.257 582.799 552.507 601.222 542.806 612.063C515.498 642.074 477.451 660.097 436.931 662.218C396.945 664.345 354.963 647.998 325.356 621.264C293.226 592.082 273.857 551.439 271.428 508.103C269.22 464.518 283.309 418.237 312.919 385.694C342.154 353.565 376.574 337.86 419.959 335.696C430.029 335.159 453.39 336.835 461.767 342.619C463.794 349.901 464.584 357.554 466.298 364.936C447.054 356.672 424.741 355.716 404.314 359.341C369.299 365.555 337.811 389.047 321.042 420.299C318.632 424.792 316.411 429.493 314.566 434.252C312.68 439.115 311.213 444.709 308.408 449.117C305.35 453.923 300.781 457.964 297.483 462.712C287.367 477.276 283.836 497.402 287.042 514.727C290.242 532.02 299.578 545.81 314.075 555.785C318.663 570.502 328.656 585.11 338.681 596.722C358.014 619.118 388.74 635.231 418.436 637.433C456.268 640.238 488.895 630.756 517.74 605.867C542.009 584.927 559.277 552.88 561.476 520.675C563.987 483.892 550.211 447.652 526.07 420.226C528.417 418.132 530.525 415.789 532.68 413.501C535.393 410.342 537.824 406.968 540.291 403.617Z" fill="#FEFEFE"/>
<path d="M551.742 404.267C554.406 397.748 556.398 391.252 557.174 384.225C557.946 377.233 556.534 365.425 559.352 359.318C560.507 356.814 562.373 354.424 563.861 352.081C565.657 349.253 567.176 346.061 569.6 343.711C570.005 343.821 570.26 343.855 570.619 344.145C572.245 345.456 572.991 347.939 573.101 349.944C573.478 356.838 572.441 364.175 572.375 371.128L572.115 434.605C570.278 430.988 567.839 427.628 565.602 424.248C561.457 417.233 556.33 410.978 551.742 404.267Z" fill="#FEFEFE"/>
<path d="M785.324 424.045C787.554 423.771 790.741 423.946 792.24 422.029C793.71 420.148 792.855 418.351 792.255 416.348C789.525 407.231 788.635 398.292 787.069 388.956C784.591 374.19 781.753 359.688 780.875 344.703C789.762 350.145 801.568 362.207 809.631 369.459C815.975 375.167 822.816 380.504 828.742 386.634C825.267 390.981 822.227 395.737 819.014 400.282C812.557 409.382 806.157 418.521 799.813 427.7C795.001 434.498 790.187 441.269 785.853 448.387C787.063 440.187 786.035 432.224 785.324 424.045Z" fill="#FEFEFE"/>
<path d="M625.004 454.035C621.425 450.907 618.221 446.759 615.949 442.591C613.517 438.131 612.045 433.205 610.951 428.265C609.156 420.167 603.468 380.003 605.271 373.916C606.29 373.013 607.164 372.833 608.458 372.607C618.463 370.862 629.176 370.402 639.301 369.283L704.405 362.204C706.031 362.032 707.478 361.685 708.971 362.524C709.771 363.486 710.23 364.292 710.397 365.53C710.931 369.506 710.532 373.739 711.012 377.829C713.517 399.158 718.666 425.228 704.325 443.585C695.087 455.409 676.123 462.61 661.581 464.321C647.839 465.938 635.796 462.589 625.004 454.035ZM699.274 369.189C669.913 372.564 640.309 374.659 611.026 378.593C612.72 394.136 614.694 422.117 620.424 435.84C622.503 440.819 625.454 445.057 629.204 448.911C638.41 456.112 649.129 459.232 660.792 457.766C672.327 456.317 691.117 449.891 698.511 440.318C708.776 427.028 707.17 410.447 705.904 394.796C705.129 386.134 704.46 377.462 703.898 368.782C702.445 368.891 700.672 368.848 699.274 369.189Z" fill="#020304"/>
<path d="M317.742 442.756C323.601 429.415 329.652 416.469 339.161 405.245C359.132 381.671 385.923 367.238 416.773 364.704C431.675 362.709 456.094 365.708 468.751 374.116C471.07 386.287 474.374 405.614 479.832 416.395C482.799 422.255 487.279 426.921 493.715 428.833C503.024 431.598 512.015 428.717 520.286 424.449C529.605 435 537.231 445.82 543.135 458.683C557.106 489.118 558.385 522.001 546.618 553.353C535.022 584.25 510.7 608.433 480.821 621.893C452.63 634.592 417.757 634.842 388.932 624.008C359.3 611.58 336.439 589.996 323.289 560.66C331.166 563.308 339.653 564.612 347.784 566.305C351.546 570.425 357.291 576.444 362.645 578.374C364.184 578.929 364.979 578.659 366.383 577.93C368.226 575.686 369.781 569.05 369.545 566.158C368.114 563.431 360.718 561.623 357.784 560.338C351.308 546.31 348.972 477.847 349.129 458.416C349.171 453.124 349.251 447.769 349.789 442.501C350.056 439.897 350.739 437.341 350.876 434.726C350.924 433.821 350.881 432.812 350.495 431.973C349.921 430.724 349.237 430.526 348.075 429.999C340.453 430.179 325.115 439.125 317.742 442.756Z" fill="#FEFEFE"/>
<path d="M611.031 378.592C640.314 374.658 669.918 372.563 699.279 369.188C700.677 368.847 702.45 368.89 703.903 368.781C704.465 377.461 705.134 386.133 705.909 394.795C707.175 410.446 708.781 427.027 698.516 440.317C691.122 449.89 672.332 456.316 660.797 457.765C649.134 459.231 638.415 456.111 629.209 448.91C625.459 445.056 622.508 440.818 620.429 435.839C614.699 422.116 612.725 394.135 611.031 378.592Z" fill="#FEFEFE"/>
<path d="M895.361 395.098C894.804 394.934 894.275 394.798 893.745 394.543C892.46 393.923 891.996 393.229 891.446 391.966C891.39 388.135 895.024 385.007 897.5 382.383C898.838 382.818 899.816 383.11 900.846 384.134C901.424 385.397 901.615 386.439 901.243 387.798C900.5 390.509 897.754 393.717 895.361 395.098Z" fill="#020304"/>
<path d="M773.392 469.285C771.978 453.513 769.829 436.987 766.688 421.465C768.859 421.38 771.135 421.3 773.3 421.457C774.691 421.558 775.915 421.715 776.894 422.788C778.516 428.059 779.114 454.865 778.262 460.523C778.028 462.078 776.831 463.898 776.097 465.285L773.392 469.285Z" fill="#FEFEFE"/>
<path d="M737.859 484.365C745.287 483.749 752.72 483.531 760.167 483.279C762.255 483.154 764.315 482.657 766.287 483.521C769.486 486.587 769.202 492.928 770.817 497.107L771.064 497.733C764.44 497.698 757.883 497.739 751.286 498.397L738.569 498.744C738.427 493.948 738.36 489.141 737.859 484.365Z" fill="#FEFEFE"/>
<path d="M678.008 487.696C692.251 486.029 706.677 486.244 720.944 484.758C724.677 484.623 728.413 484.55 732.149 484.539C731.603 489.497 731.497 494.308 731.485 499.289C725.244 499.4 694 501.556 691.388 501.032L685.905 501.416C683.705 494.762 684.029 492.041 678.008 487.696Z" fill="#FEFEFE"/>
<path d="M617.371 505.613C616.343 505.587 616.214 505.793 615.424 505.064C614.984 502.232 615.632 493.939 617.171 491.606C622.339 490.429 628.263 490.609 633.572 490.266L665.304 488.234L667.256 488.047L667.553 488.502C662.964 492.311 659.843 497.325 657.772 502.886C644.266 503.722 630.912 505.239 617.371 505.613Z" fill="#FEFEFE"/>
<path d="M935.989 501.898C945.222 495.631 956.751 491.177 967.805 489.672C970.565 489.685 973.606 489.651 975.875 491.499C976.91 492.342 977.414 493.474 977.453 494.79C977.649 501.435 973.466 513.483 971.695 520.067L960.583 561.105L943.128 628.344C940.358 638.676 937.986 649.409 934.44 659.496C932.885 663.92 930.826 667.991 927.49 671.365C923.847 675.1 919.184 677.678 914.084 678.778C903.044 681.208 885.904 680.069 874.323 680.044L812.07 679.855C811.675 669.742 809.467 659.079 808.127 649.011C805.877 630.825 803.449 612.662 800.846 594.523C799.923 588.791 798.762 583.131 797.562 577.452C805.63 578.003 811.15 577.13 818.549 573.721C819.712 582.338 818.89 591.486 818.909 600.182C818.949 617.745 819.365 637.026 822.727 654.288C823.034 655.867 823.459 656.788 824.784 657.692L825.906 657.467C826.836 656.548 827.226 655.79 827.484 654.53C828.598 649.086 828.307 642.731 828.586 637.139C829.296 622.936 830.013 608.823 829.922 594.596C829.868 586.192 828.16 563.408 831.024 556.867C832.575 553.325 833.672 550.038 833.69 546.098C833.728 537.921 829.327 532.962 823.823 527.61C829.655 518.91 836.632 510.57 843.343 502.526C855.612 501.719 868.005 502.063 880.291 502.193C898.792 502.389 917.502 502.633 935.989 501.898ZM967.281 500.693C960.316 501.703 953.468 503.312 946.528 504.375C942.211 505.037 937.619 505.084 933.417 506.278C931.992 506.683 930.835 507.113 929.951 508.408C927.899 511.413 927.66 516.152 928.401 519.612C928.703 521.026 929.261 522.607 930.468 523.51C931.299 524.133 932.415 524.351 933.396 524.607C939.925 524.312 961.954 522.316 966.698 519.624C969.533 515.473 972.627 506.813 971.771 501.817C970.906 500.782 970.747 500.612 969.312 500.494C968.701 500.444 967.872 500.616 967.281 500.693ZM852.109 520.049C850.881 523.563 850.288 526.869 849.934 530.572C848.424 546.387 845.297 648.626 849.779 658.481L850.68 658.804C851.885 658.088 852.244 657.633 852.737 656.239C858.055 633.71 866.551 541.261 855.237 522.188C854.594 521.104 853.876 520.483 852.638 520.155C852.464 520.109 852.285 520.084 852.109 520.049ZM882.792 520.745C880.669 529.748 881.067 544.427 880.375 554.056L875.071 632.651C874.72 638.345 872.779 653.489 873.648 658.304C874.238 658.79 874.274 659.053 875.08 658.995C875.881 658.938 875.579 659.016 876.253 658.588C879.535 637.213 882.07 615.73 883.854 594.179C885.024 578.47 885.262 562.769 885.953 547.046C886.144 542.686 887.823 524.677 885.711 521.566C884.71 521.235 883.828 520.951 882.792 520.745ZM913.865 523.874C911.191 531.885 910.079 540.727 908.609 549.043C906.245 562.422 903.941 575.833 902.617 589.362C901.039 605.499 900.678 621.685 900.286 637.878C900.143 643.762 898.976 651.969 900.312 657.679C901.383 658.498 902.004 658.56 903.334 658.646C906.365 646.704 908.112 634.311 909.984 622.14C911.954 609.329 914.12 596.51 915.354 583.603C916.697 569.538 916.977 555.352 917.234 541.231C917.306 537.291 918.507 527.853 916.508 524.698C916.036 523.954 914.7 523.979 913.865 523.874ZM943.74 527.448C941.251 534.308 941.536 542.896 940.307 550.138C936.361 573.398 933.064 596.679 929.555 620.004C927.917 630.891 925.624 641.821 924.331 652.737C924.129 654.444 924.017 655.827 924.648 657.443C925.623 658.262 926.151 658.408 927.408 658.562C928.025 657.418 928.357 656.463 928.601 655.187C930.706 644.159 948.047 532.35 947.248 529.592C947.032 528.847 946.744 528.457 946.039 528.057C945.442 527.717 944.42 527.594 943.74 527.448Z" fill="#FEFEFE"/>
<path d="M579.566 494.222C588.008 493.898 596.445 492.995 604.853 492.2C606.131 492 606.826 491.847 608.072 492.322C610.256 495.323 608.528 502.807 608.206 506.416C600.618 506.728 592.626 506.742 585.139 507.921C583.706 507.897 582.509 507.894 581.143 507.377C578.659 504.578 579.627 497.806 579.566 494.222Z" fill="#FEFEFE"/>
<path d="M666.146 502.99C665.625 502.587 665.183 502.509 665.165 501.785C665.115 499.724 667.101 497.797 668.343 496.344C668.741 496.729 668.961 497.19 669.175 497.701C669.665 498.869 669.964 500.261 669.337 501.431C668.597 502.813 667.544 502.686 666.146 502.99Z" fill="#FEFEFE"/>
<path d="M933.394 524.606C932.413 524.35 931.296 524.132 930.465 523.509C929.258 522.606 928.701 521.025 928.399 519.611C927.658 516.151 927.896 511.412 929.948 508.407C930.832 507.112 931.99 506.682 933.415 506.277C937.617 505.083 942.208 505.036 946.525 504.374C953.465 503.311 960.313 501.702 967.278 500.692C967.869 500.615 968.699 500.443 969.31 500.493C970.744 500.611 970.904 500.781 971.769 501.816C972.625 506.812 969.53 515.472 966.695 519.623C961.951 522.315 939.923 524.311 933.394 524.606ZM963.353 506.204C953.415 507.372 943.58 509.277 933.68 510.711C932.916 513.689 931.807 516.419 933.146 519.381C934.217 520.103 934.516 520.129 935.816 520.247C944.825 518.867 954.444 518.398 963.243 516.229C964.653 513.182 965.984 510.15 965.856 506.72L965.269 505.931C964.774 505.996 963.817 506.056 963.353 506.204Z" fill="#020304"/>
<path d="M738.578 505.224C748.129 504.647 757.685 504.167 767.246 503.784C768.98 503.625 770.483 503.592 772.212 503.812C774.306 508.447 774.784 514.864 775.975 519.892C779.539 535.629 783.264 551.328 787.151 566.988C781.182 563.044 775.098 559.31 769.212 555.236C766.301 553.059 763.398 550.817 760.671 548.414C747.235 536.576 739.734 523.168 738.578 505.224Z" fill="#FEFEFE"/>
<path d="M686.282 507.696C697.901 507.304 709.534 506.422 721.138 505.717C724.469 505.122 728.428 505.358 731.835 505.234C732.057 510.106 732.561 514.725 733.853 519.442C741.489 547.33 765.824 561.963 789.278 575.454C805.117 673.046 816.72 771.28 824.055 869.877C794.58 871.702 765.152 873.668 735.649 875.015C734.158 854.526 724.154 830.09 716.114 811.224C714.3 806.968 712.623 801.796 709.873 798.07C709.034 797.797 708.53 797.627 707.803 797.104C708.133 795.565 708.502 793.908 708.27 792.329C707.016 783.831 704.833 775.258 703.208 766.801L695.01 721.875C690.363 695.688 686.168 669.423 682.425 643.092C682.05 640.489 679.899 638.602 679.595 635.889C679.01 630.653 678.962 625.168 678.617 619.895C677.248 598.964 676.942 577.992 676.375 557.029C680.078 556.41 683.734 557.04 687.335 556.52C688.618 556.334 688.695 556.189 689.427 555.209C689.517 553.732 689.61 553.618 688.794 552.409C685.895 551.04 682.621 552.023 679.607 552.56C681.16 538.038 678.229 523.581 678.807 509.061C680.52 516.596 678.537 535.646 682.888 540.35L684.471 540.398C684.659 540.21 684.861 540.034 685.035 539.834C689.631 534.556 686.538 515.128 686.282 507.696Z" fill="#FEFEFE"/>
<path d="M933.676 510.71C943.576 509.276 953.411 507.371 963.349 506.203C963.813 506.055 964.77 505.995 965.265 505.93L965.852 506.719C965.98 510.149 964.649 513.181 963.239 516.228C954.44 518.397 944.821 518.866 935.812 520.246C934.512 520.128 934.213 520.102 933.142 519.38C931.803 516.418 932.912 513.688 933.676 510.71Z" fill="#FEFEFE"/>
<path d="M662.913 508.999L669.185 508.773L669.949 508.967C672.336 517.033 670.636 527.838 670.789 536.29C671.048 550.68 671.366 565.169 671.919 579.548C672.424 593.063 673.008 606.574 673.671 620.082C673.987 625.482 674.949 631.003 675.058 636.377C675.126 639.753 673.852 642.745 674.277 646.299C678.018 677.592 684.612 708.717 689.754 739.807C691.712 752.017 693.839 764.199 696.137 776.35C697.315 782.601 698.2 789.307 700.267 795.323C697.046 803.749 695.322 813.158 693.189 821.916C688.149 842.615 683.059 863.374 680.816 884.59C672.371 886.263 663.052 885.827 654.429 886.266C638.606 887.108 622.787 888.044 606.975 889.073C603.625 875.912 602.696 861.92 600.666 848.487C590.781 783.663 584.303 718.365 581.26 652.862C580.319 631.119 580.222 609.236 579.875 587.472C583.357 583.81 587.097 580.661 590.358 576.705C605.691 558.098 611.425 535.081 614.627 511.72C628.246 511.12 641.973 509.221 655.603 509.501C653.57 521.529 651.326 544.311 653.392 555.828C653.743 557.789 654.212 559.373 655.898 560.554C657.11 560.66 657.263 560.591 658.355 560.035C659.08 559.096 659.333 558.504 659.422 557.31C659.826 551.884 659.459 546.263 659.512 540.813C659.614 530.167 660.532 519.38 662.913 508.999Z" fill="#FEFEFE"/>
<path d="M580.018 514.291C586.267 514.043 592.533 513.239 598.772 512.752C601.109 512.225 604.322 512.477 606.76 512.398C605.528 532.825 595.856 560.159 582.982 575.673L579.289 579.682C579.28 557.918 579.611 536.052 580.018 514.291Z" fill="#FEFEFE"/>
<path d="M852.732 656.237C852.239 657.631 851.879 658.086 850.674 658.802L849.773 658.479C845.291 648.624 848.418 546.385 849.928 530.57C850.282 526.867 850.875 523.561 852.103 520.047C852.279 520.082 852.458 520.107 852.632 520.153C853.87 520.481 854.589 521.102 855.232 522.186C866.546 541.259 858.05 633.708 852.732 656.237ZM852.869 525.215C851.039 539.236 848.197 639.889 851.356 647.394L851.649 646.385C857.198 613.854 859.809 574.313 856.966 541.507C856.627 537.594 856.368 529.238 853.842 526.069C853.415 525.533 853.358 525.54 852.869 525.215Z" fill="#020304"/>
<path d="M876.249 658.585C875.575 659.013 875.876 658.935 875.075 658.992C874.269 659.05 874.234 658.787 873.644 658.301C872.775 653.486 874.716 638.342 875.067 632.648L880.37 554.053C881.062 544.424 880.664 529.745 882.787 520.742C883.823 520.948 884.706 521.232 885.707 521.563C887.819 524.674 886.14 542.683 885.949 547.043C885.258 562.766 885.02 578.467 883.85 594.176C882.066 615.727 879.531 637.21 876.249 658.585ZM882.503 559.315C881.107 568.325 876.788 618.128 878.218 625.645C879.474 614.794 885.137 565.742 882.503 559.315Z" fill="#020304"/>
<path d="M903.329 658.639C901.999 658.553 901.377 658.491 900.306 657.672C898.97 651.962 900.138 643.755 900.281 637.871C900.673 621.678 901.033 605.492 902.611 589.355C903.935 575.826 906.239 562.415 908.603 549.036C910.073 540.72 911.186 531.878 913.86 523.867C914.695 523.972 916.031 523.947 916.503 524.691C918.502 527.846 917.3 537.284 917.228 541.224C916.971 555.345 916.691 569.531 915.348 583.596C914.114 596.503 911.948 609.322 909.978 622.133C908.106 634.304 906.36 646.697 903.329 658.639ZM914.118 535.337C912.2 541.288 911.137 547.735 909.975 553.874C905.512 577.464 903.815 601.12 902.794 625.069C902.486 632.284 901.546 640.965 902.765 648.057C905.126 638.137 906.587 627.964 908.175 617.9C911.814 594.846 914.409 572.481 914.568 549.095C914.596 544.862 915.121 539.405 914.118 535.337Z" fill="#020304"/>
<path d="M851.65 646.381L851.357 647.39C848.198 639.885 851.04 539.232 852.87 525.211C853.359 525.536 853.416 525.529 853.843 526.065C856.369 529.234 856.628 537.59 856.967 541.503C859.81 574.309 857.199 613.85 851.65 646.381Z" fill="#FEFEFE"/>
<path d="M927.407 658.559C926.15 658.405 925.623 658.259 924.648 657.44C924.017 655.824 924.128 654.441 924.33 652.734C925.623 641.818 927.916 630.888 929.554 620.001C933.063 596.676 936.36 573.395 940.306 550.135C941.535 542.893 941.251 534.305 943.74 527.445C944.42 527.591 945.442 527.714 946.039 528.054C946.744 528.454 947.032 528.844 947.248 529.589C948.047 532.347 930.705 644.156 928.6 655.184C928.356 656.46 928.024 657.415 927.407 658.559Z" fill="#020304"/>
<path d="M811 542.361C814.223 539.317 816.919 535.645 819.849 532.312C820.287 532.644 820.394 532.709 820.848 533.141C824.242 536.367 826.509 539.885 826.682 544.707C826.867 549.834 823.824 558.001 820.319 561.826L819.651 561.373C817.371 554.579 814.434 548.615 811 542.361Z" fill="#FEFEFE"/>
<path d="M902.772 648.064C901.553 640.972 902.493 632.291 902.801 625.076C903.822 601.127 905.519 577.471 909.982 553.881C911.144 547.742 912.207 541.295 914.125 535.344C915.128 539.412 914.603 544.869 914.575 549.102C914.416 572.488 911.821 594.853 908.182 617.907C906.594 627.971 905.133 638.144 902.772 648.064Z" fill="#FEFEFE"/>
<path d="M878.224 625.643C876.794 618.126 881.113 568.323 882.509 559.312C885.143 565.74 879.48 614.792 878.224 625.643Z" fill="#FEFEFE"/>
<path d="M821.398 571.209C822.907 569.117 824.576 567.311 826.359 565.461C826.38 565.49 826.405 565.516 826.422 565.549C829.11 570.814 826.828 641.551 824.776 648.639L824.31 648.383C822.157 633.02 821.602 616.326 821.54 600.811C821.501 590.887 821.945 581.141 821.398 571.209Z" fill="#FEFEFE"/>
<path d="M233.406 723.5C243.122 723.673 252.806 722.861 262.517 722.689L347.097 720.668L568.765 715.753L576.377 715.461C578.035 730.452 579.136 745.497 580.762 760.492C582.739 778.251 584.929 795.985 587.331 813.69C590.301 838.89 593.693 864.038 597.506 889.124C584.272 890.634 570.066 890.013 556.731 890.057L497.304 890.592C418.248 891.614 339.184 891.994 260.121 891.733C252.572 891.839 245.021 891.742 237.477 891.442C235.604 835.475 234.247 779.492 233.406 723.5Z" fill="#FEFEFE"/>
<path d="M688.922 885.566C691.519 875.532 692.291 864.765 694.401 854.567C697.603 839.091 702.013 823.81 704.898 808.289C705.204 809.043 705.172 808.787 705.233 809.458C706.41 822.459 715.388 842.694 720.052 855.278C723.744 865.243 726.989 875.354 730.512 885.378L713.879 885.48L688.922 885.566Z" fill="#FEFEFE"/>
<path d="M741.377 890.529L740.486 890.373C739.253 888.805 739.055 885.847 738.664 883.894C739.802 883.06 741.287 883.003 742.657 882.901C751.779 882.221 761.033 882.428 770.181 881.974C786.358 881.172 802.512 879.796 818.677 878.776C821.036 878.503 822.552 878.099 824.556 879.534C825.597 881.512 825.457 884.181 825.594 886.388C797.518 886.704 769.44 890.765 741.377 890.529Z" fill="#FEFEFE"/>
<path d="M607.586 897.347C615.003 896.537 622.693 896.715 630.159 896.364L672.642 894.23C674.937 893.659 677.965 893.973 680.361 893.933C680.552 896.424 680.517 898.958 680.568 901.458C658.677 902.243 636.755 904.383 614.863 904.678L608.828 904.886L607.586 897.347Z" fill="#FEFEFE"/>
<path d="M801.981 895.863C800.091 900.314 795.759 905.411 796.272 910.366C797.095 911.728 797.238 911.796 798.687 912.474C801.135 911.856 805.672 900.763 808.121 898.082C809.976 896.053 811.047 895.913 813.722 895.742L814.416 895.705C814.908 895.654 814.947 895.641 815.524 895.636C818.072 895.611 821.321 895.491 823.171 897.351C824.035 901.99 816.034 908.499 815.832 914.295C816.464 915.784 816.649 915.945 817.969 916.896C818.102 916.865 818.241 916.852 818.369 916.802C821.013 915.761 827.857 903.347 829.729 900.236C833.34 901.772 836.965 903.082 840.692 904.308C839.472 906.492 837.585 909.017 836.715 911.302C836.084 912.961 835.779 915.555 836.677 917.162C837.076 917.876 837.423 917.713 838.154 917.842C841.764 916.268 843.365 910.487 845.923 907.429C846.057 907.268 846.197 907.11 846.334 906.951C851.537 907.542 856.458 908.357 861.473 909.898C859.729 914.206 858.006 917.547 858.224 922.337L859.65 923.303C863.393 921.16 864.887 915.975 866.551 912.213C869.926 912.503 873.163 913.376 876.442 914.182C875.155 916.697 873.095 920.342 872.512 923.021C872.282 924.076 872.831 925.557 873.594 926.339C874.596 927.365 874.839 927.437 876.166 927.368C878.922 924.535 880.726 920.212 883.001 916.893C889.174 918.123 897.743 919.138 901.643 924.602C901.814 925.939 901.844 925.846 901.034 926.921C895.668 929.751 882.549 928.831 876.212 928.897C850.231 928.209 824.298 926.251 798.508 923.03C780.192 920.723 761.665 917.446 743.289 915.991C743.586 910.239 743.835 904.496 744.521 898.774L801.981 895.863Z" fill="#FEFEFE"/>
<path d="M609.558 914.071C617.56 912.754 626.018 912.658 634.107 912.228L669.403 910.207C672.429 909.998 676.19 909.382 679.113 910.347C679.998 910.64 680.505 911.008 680.909 911.848C680.826 912.618 680.708 913.077 680.2 913.706C676.951 917.73 661.999 921.362 656.689 923.159C638.252 929.397 620.069 936.207 601.25 941.276C580.447 946.88 559.246 949.698 537.773 950.893C540.485 948.291 543.52 946.419 546.726 944.503C548.398 943.529 550.086 942.481 551.853 941.69C555.345 940.127 557.001 941.708 560.22 942.853C561.892 943.447 563.122 943.623 564.693 942.857C564.897 942.291 564.943 942.276 564.965 941.572C565.028 939.601 563.716 937.939 562.565 936.489C568.018 933.714 573.83 931.53 579.115 928.452C581.541 930.058 584.094 932.031 587.019 932.523C588.845 932.829 590.121 932.69 591.619 931.597L591.638 930.545C589.984 927.412 587.918 926.868 584.806 925.65C590.618 921.995 597.469 919.573 603.948 917.399C605.533 918.863 607.452 921.097 609.6 921.616C611.107 921.981 612.372 921.913 613.739 921.155C614.066 920.433 614.271 920.247 614.156 919.407C613.794 916.752 611.54 915.529 609.558 914.071Z" fill="#FEFEFE"/>
</g>
<defs>
<clipPath id="clip0_5939_986">
<rect width="1024" height="1024" fill="white"/>
</clipPath>
</defs>
</svg>
